<?xml version="1.0" encoding="UTF-8"?>
<svg version="1.1" xmlns="http://www.w3.org/2000/svg" width="3000" height="3000">
<path d="M0 0 C1.61694637 -0.0021146 3.23389179 -0.00510416 4.85083514 -0.00887535 C9.26871555 -0.01667517 13.68650798 -0.01216776 18.10438707 -0.00553953 C22.93822296 -0.00052513 27.77204578 -0.0072054 32.6058796 -0.0123432 C41.10192146 -0.01977381 49.59793823 -0.01979368 58.09398158 -0.01495371 C70.81297326 -0.00774385 83.53194335 -0.01208019 96.25093445 -0.01863506 C117.92950185 -0.0294663 139.6080607 -0.03080626 161.28663003 -0.02693671 C183.25544205 -0.02304393 205.22424764 -0.02349915 227.19305933 -0.02924651 C227.88627281 -0.02942576 228.5794863 -0.02960501 229.29370625 -0.02978969 C235.64671718 -0.03143259 241.9997281 -0.03311819 248.352739 -0.03485533 C264.2829256 -0.03920454 280.21311233 -0.04284006 296.14329922 -0.04598767 C296.87324361 -0.04613212 297.60318799 -0.04627657 298.35525191 -0.0464254 C334.32990479 -0.05347445 370.30455707 -0.05283544 406.27921045 -0.0513069 C407.44869015 -0.05125729 407.44869015 -0.05125729 408.6417957 -0.05120668 C411.79824339 -0.05107237 414.95469107 -0.05093722 418.11113876 -0.05080131 C426.83050307 -0.05042613 435.54986737 -0.05006846 444.26923168 -0.04973358 C445.05647577 -0.04970286 445.84371987 -0.04967215 446.65481985 -0.0496405 C482.34553039 -0.04826619 518.03624025 -0.05079722 553.72695061 -0.05425965 C558.50222203 -0.05472288 563.27749346 -0.05517474 568.05276488 -0.05562377 C569.23683137 -0.05573519 569.23683137 -0.05573519 570.44481839 -0.05584886 C572.04065097 -0.05599901 573.63648355 -0.05614913 575.23231613 -0.05629922 C579.2282171 -0.05667529 583.22411806 -0.05705276 587.22001903 -0.0574303 C588.01229463 -0.05750511 588.80457023 -0.05757991 589.62085419 -0.05765698 C593.62729827 -0.05803545 597.63374235 -0.05841538 601.64018643 -0.05879792 C639.03010034 -0.062366 676.42001428 -0.06523037 713.8099283 -0.06739062 C714.62458368 -0.06743786 715.43923905 -0.0674851 716.27858096 -0.06753377 C768.18720188 -0.07052835 820.09582229 -0.07040362 872.00444324 -0.06796985 C874.55673043 -0.06785026 877.10901762 -0.06773188 879.6613048 -0.06761376 C898.44828642 -0.06674234 917.23526804 -0.06581174 936.02224965 -0.06486312 C937.73558635 -0.06477674 939.44892305 -0.06469036 941.16225975 -0.064604 C942.87629602 -0.06451757 944.5903323 -0.06443112 946.30436857 -0.06434468 C947.57741244 -0.06428049 947.57741244 -0.06428049 948.87617437 -0.06421501 C953.16445625 -0.06399862 957.45273813 -0.06378118 961.74102001 -0.06356178 C1042.7359633 -0.05942318 1123.73090399 -0.05834567 1204.72584665 -0.07072181 C1205.57857521 -0.07085209 1206.43130377 -0.07098237 1207.30987259 -0.0711166 C1233.09592571 -0.07506852 1258.88197875 -0.07942808 1284.66803178 -0.08388776 C1312.8644611 -0.08876387 1341.06089043 -0.09359783 1369.25731981 -0.09816951 C1370.09912053 -0.09830628 1370.94092126 -0.09844305 1371.8082311 -0.09858396 C1424.53425055 -0.10713952 1477.26026924 -0.11204242 1529.98628938 -0.11287707 C1531.20792695 -0.11289698 1531.20792695 -0.11289698 1532.45424407 -0.11291729 C1568.22291144 -0.11349263 1603.99157876 -0.11320779 1639.76024611 -0.11199857 C1653.35394201 -0.11153937 1666.94763791 -0.11114713 1680.54133381 -0.11078781 C1683.72350638 -0.11070355 1686.90567896 -0.11061428 1690.08785153 -0.11052099 C1726.57249915 -0.10946569 1763.05714486 -0.11054265 1799.5417918 -0.11819595 C1800.32830193 -0.11836059 1801.11481207 -0.11852524 1801.92515584 -0.11869487 C1814.57662476 -0.12135306 1827.22809363 -0.12417219 1839.87956251 -0.12699889 C1875.80295511 -0.13501523 1911.7263449 -0.14136032 1947.64973843 -0.13693005 C1948.7436323 -0.13679595 1948.7436323 -0.13679595 1949.85962504 -0.13665914 C1965.77164437 -0.1346754 1981.68366343 -0.13183981 1997.59568246 -0.12816862 C2003.94229189 -0.12671645 2010.28890134 -0.12537221 2016.6355108 -0.12406081 C2017.67395425 -0.12384171 2017.67395425 -0.12384171 2018.73337635 -0.12361818 C2040.67040314 -0.11904031 2062.60741499 -0.12364808 2084.54443965 -0.1335954 C2106.75323605 -0.14362517 2128.96200792 -0.14325471 2151.1708032 -0.13029478 C2163.79928243 -0.1232445 2176.42769659 -0.12437308 2189.05617118 -0.13764316 C2197.44792051 -0.14563928 2205.83962067 -0.14271508 2214.23136549 -0.13099352 C2218.98532626 -0.12465598 2223.73915865 -0.12286199 2228.49311217 -0.13456073 C2251.22978851 -0.18678158 2273.89448602 -0.22054522 2295.99598825 5.939349 C2296.93329782 6.19353601 2297.87060739 6.44772302 2298.83632028 6.70961267 C2345.78903044 19.92519857 2386.99302279 51.78430678 2411.05848825 94.251849 C2412.51213399 96.89994321 2413.91953827 99.56933318 2415.30848825 102.251849 C2415.65363473 102.9108822 2415.99878122 103.5699154 2416.35438669 104.24891931 C2425.77993236 122.47164094 2431.29866273 142.00212461 2434.30848825 162.251849 C2434.47847905 163.3009583 2434.64846986 164.3500676 2434.8236119 165.43096809 C2435.65615114 172.20895502 2435.44642088 179.05530817 2435.43613875 185.87275982 C2435.43738225 187.48324735 2435.43906342 189.09373459 2435.44114111 190.70422126 C2435.44559549 195.1461332 2435.44381111 199.58802433 2435.44103933 204.02993684 C2435.43911873 208.87425274 2435.44299786 213.71856457 2435.44613612 218.56287935 C2435.45085421 227.09139948 2435.45183319 235.6199138 2435.45040777 244.14843502 C2435.44828952 256.91616255 2435.45189591 269.68388407 2435.45662255 282.45161068 C2435.46450292 304.20963581 2435.4675929 325.96765947 2435.46806848 347.72568589 C2435.46856289 369.78374068 2435.47120701 391.84179363 2435.47647607 413.89984781 C2435.47680961 415.305741 2435.47714308 416.7116342 2435.47747648 418.1175274 C2435.47882458 423.78602938 2435.48018788 429.45453135 2435.48156858 435.12303332 C2435.49673697 497.48546249 2435.50351173 559.84789119 2435.50799055 622.21032191 C2435.50804724 622.99919272 2435.50810393 623.78806352 2435.50816233 624.6008395 C2435.50844886 628.59112121 2435.50873389 632.58140292 2435.50901645 636.57168463 C2435.51139151 670.00203374 2435.51510117 703.43238265 2435.51905355 736.8627316 C2435.52094613 752.87208189 2435.52277464 768.88143218 2435.52458775 784.89078248 C2435.52467794 785.68699869 2435.52476813 786.4832149 2435.52486105 787.30355887 C2435.52919733 825.62488581 2435.53312565 863.94621278 2435.53658807 902.2675398 C2435.53666195 903.08500897 2435.53673582 903.90247814 2435.53681193 904.74471911 C2435.54150705 956.84329682 2435.54432997 1008.94187446 2435.54597485 1061.04045235 C2435.54611043 1065.31200975 2435.54624946 1069.58356715 2435.54638839 1073.85512456 C2435.54661087 1080.70347445 2435.54683224 1087.55182433 2435.54705227 1094.40017422 C2435.54707954 1095.248802 2435.54710681 1096.09742979 2435.54713491 1096.97177356 C2435.54719002 1098.68691874 2435.54724513 1100.40206392 2435.54730024 1102.1172091 C2435.54768686 1114.14847484 2435.5480748 1126.17974058 2435.54846937 1138.21100632 C2435.54861048 1142.51604364 2435.54875055 1146.82108095 2435.54888827 1151.12611827 C2435.55149235 1232.42974836 2435.55682142 1313.73337655 2435.57277048 1395.03700525 C2435.57293827 1395.89283539 2435.57310606 1396.74866554 2435.57327894 1397.63042994 C2435.57852962 1424.37020313 2435.58410398 1451.10997627 2435.58973825 1477.84974939 C2435.59551926 1505.28669083 2435.60124982 1532.72363227 2435.60669458 1560.16057378 C2435.60694629 1561.42778229 2435.60694629 1561.42778229 2435.60720309 1562.72059096 C2435.61769689 1615.63300964 2435.62455805 1668.54542778 2435.62756097 1721.45784742 C2435.62760778 1722.27513416 2435.6276546 1723.0924209 2435.62770283 1723.9344739 C2435.62975353 1759.82871664 2435.63099758 1795.72295937 2435.63134888 1831.61720217 C2435.63149215 1846.05785032 2435.63173081 1860.49849847 2435.63201294 1874.93914662 C2435.63205847 1877.33347026 2435.63210012 1879.72779389 2435.63214105 1882.12211752 C2435.63278706 1918.7407637 2435.63574311 1955.3594077 2435.64560163 1991.97805268 C2435.64592019 1993.1623605 2435.64592019 1993.1623605 2435.64624518 1994.37059373 C2435.64967391 2007.07109964 2435.65328689 2019.7716055 2435.65692158 2032.47211135 C2435.6672367 2068.53329903 2435.67601577 2104.59448403 2435.67407691 2140.65567344 C2435.67401881 2141.75362897 2435.67401881 2141.75362897 2435.67395952 2142.87376541 C2435.67308288 2158.84444929 2435.67137066 2174.81513298 2435.6688399 2190.78581669 C2435.66784317 2197.15575657 2435.66695651 2203.52569647 2435.66610467 2209.89563638 C2435.66600879 2210.59048204 2435.6659129 2211.2853277 2435.66581411 2212.00122929 C2435.66282715 2234.02476613 2435.66905098 2256.04828739 2435.68062354 2278.07182103 C2435.69229844 2300.36543704 2435.69359756 2322.65903023 2435.68230786 2344.95264693 C2435.67620806 2357.63172055 2435.67831516 2370.3107286 2435.69255983 2382.98979606 C2435.70120242 2391.41258581 2435.69894408 2399.83532735 2435.68786112 2408.25811413 C2435.68188427 2413.03139099 2435.68048611 2417.80453937 2435.69254598 2422.57780765 C2435.83023561 2480.9616052 2420.83245058 2530.86103065 2379.24598825 2573.564349 C2374.20253437 2578.47951152 2368.88624978 2582.95616211 2363.30848825 2587.251849 C2362.79334665 2587.64871911 2362.27820505 2588.04558923 2361.74745309 2588.45448571 C2340.01651095 2605.02046852 2314.50738632 2616.70882255 2287.80848825 2622.501849 C2287.1229487 2622.65291101 2286.43740915 2622.80397302 2285.73109567 2622.95961267 C2271.78655065 2625.77841079 2257.68942619 2626.55089111 2243.50560206 2626.50369799 C2241.88876758 2626.50581315 2240.27193405 2626.50880311 2238.65510258 2626.51257334 C2234.24220193 2626.52036516 2229.82938948 2626.51586997 2225.41649017 2626.50923752 C2220.58632838 2626.50421927 2215.7561796 2626.51090494 2210.92601988 2626.51604119 C2202.43801251 2626.52346889 2193.95003025 2626.52349332 2185.46202139 2626.5186517 C2172.75507321 2626.5114394 2160.04814663 2626.51577958 2147.34119903 2626.52233305 C2125.68276108 2626.53316226 2104.0243317 2626.53450485 2082.36589181 2626.5306347 C2060.41846308 2626.52674149 2038.47104078 2626.52719781 2016.52361238 2626.5329445 C2015.48468484 2626.53321338 2015.48468484 2626.53321338 2014.42476887 2626.53348769 C2008.07718487 2626.53513059 2001.72960089 2626.53681618 1995.38201692 2626.53855332 C1979.465667 2626.54290245 1963.54931696 2626.546538 1947.63296676 2626.54968566 C1946.90366806 2626.54983011 1946.17436936 2626.54997456 1945.42297071 2626.55012339 C1909.48278972 2626.55717193 1873.54260933 2626.55653349 1837.60242784 2626.55500489 C1836.82355265 2626.55497182 1836.04467746 2626.55493875 1835.2422 2626.55490468 C1832.0889005 2626.55477036 1828.935601 2626.55463521 1825.78230151 2626.5544993 C1817.07160403 2626.55412412 1808.36090655 2626.55376645 1799.65020907 2626.55343157 C1798.86374517 2626.55340085 1798.07728127 2626.55337014 1797.26698513 2626.55333849 C1761.60972912 2626.55196411 1725.95247379 2626.55449534 1690.29521796 2626.55795764 C1685.52424824 2626.55842087 1680.75327851 2626.55887273 1675.98230879 2626.55932176 C1675.19364208 2626.55939604 1674.40497537 2626.55947032 1673.59240967 2626.55954685 C1671.99801387 2626.559697 1670.40361806 2626.55984712 1668.80922226 2626.55999721 C1664.81691535 2626.56037328 1660.82460845 2626.56075075 1656.83230154 2626.56112829 C1655.64495627 2626.5612405 1655.64495627 2626.5612405 1654.43362423 2626.56135497 C1650.4307775 2626.56173345 1646.42793077 2626.56211337 1642.42508404 2626.56249591 C1605.06899718 2626.56606396 1567.71291029 2626.56892835 1530.35682333 2626.57108861 C1529.54291089 2626.57113585 1528.72899846 2626.57118309 1527.89042202 2626.57123176 C1476.03036745 2626.57422627 1424.1703134 2626.57410166 1372.31025881 2626.57166784 C1369.76041833 2626.57154825 1367.21057784 2626.57142987 1364.66073735 2626.57131175 C1345.89181264 2626.57044033 1327.12288794 2626.56950973 1308.35396323 2626.56856111 C1306.64227671 2626.56847473 1304.93059018 2626.56838836 1303.21890365 2626.568302 C1301.50651844 2626.56821556 1299.79413322 2626.56812912 1298.08174801 2626.56804267 C1296.8099305 2626.56797848 1296.8099305 2626.56797848 1295.51241971 2626.567913 C1291.22826884 2626.56769661 1286.94411797 2626.56747917 1282.6599671 2626.56725977 C1201.74188274 2626.56312112 1120.82380099 2626.56204396 1039.90571725 2626.5744198 C1039.05377681 2626.57455008 1038.20183637 2626.57468036 1037.32407954 2626.57481459 C1011.56177209 2626.57876652 985.7994647 2626.58312608 960.03715732 2626.58758575 C931.86661879 2626.59246187 903.69608025 2626.59729582 875.52554166 2626.6018675 C874.68451284 2626.60200427 873.84348403 2626.60214104 872.97696949 2626.60228195 C820.29935259 2626.6108375 767.62173644 2626.61574041 714.94411886 2626.61657506 C713.72360571 2626.61659497 713.72360571 2626.61659497 712.47843574 2626.61661528 C676.74273466 2626.61719062 641.00703364 2626.61690578 605.27133258 2626.61569656 C591.69019535 2626.61523736 578.10905812 2626.61484512 564.52792089 2626.61448581 C561.34869298 2626.61440154 558.16946508 2626.61431227 554.99023717 2626.61421899 C518.53962223 2626.61316369 482.08900921 2626.61424058 445.63839495 2626.62189394 C444.85262553 2626.62205859 444.06685612 2626.62222323 443.2572755 2626.62239286 C430.61774599 2626.62505105 417.97821651 2626.62787018 405.33868703 2626.63069689 C369.44933254 2626.63871321 333.55998087 2626.64505832 297.67062545 2626.64062804 C296.94205463 2626.64053864 296.21348381 2626.64044924 295.46283509 2626.64035713 C279.56592241 2626.63837339 263.66900999 2626.63553781 247.77209761 2626.63186661 C241.43152156 2626.63041444 235.0909455 2626.6290702 228.75036943 2626.6277588 C228.05873223 2626.62761273 227.36709503 2626.62746667 226.65449913 2626.62731617 C204.73841108 2626.62273832 182.82233798 2626.62734604 160.90625206 2626.63729339 C138.71865556 2626.64732319 116.53108362 2626.64695266 94.34348823 2626.63399277 C81.72710812 2626.62694254 69.11079316 2626.62807098 56.49441769 2626.64134115 C48.11068983 2626.64933734 39.72701118 2626.64641298 31.34328782 2626.63469151 C26.5938919 2626.62835405 21.84462449 2626.62655979 17.09523582 2626.63825872 C-36.99147364 2626.76231802 -87.523436 2616.17881433 -128.40244925 2578.34950525 C-130.40798917 2576.51166406 -132.46510468 2574.78957826 -134.56651175 2573.064349 C-167.62484897 2544.13830393 -186.73833921 2497.46971243 -190.48717264 2454.50342185 C-190.88884896 2448.11169478 -190.82890342 2441.71223359 -190.81916225 2435.31078959 C-190.82040674 2433.70216609 -190.82208853 2432.09354288 -190.82416461 2430.48492024 C-190.82860532 2426.0621976 -190.82683982 2421.63949596 -190.82406283 2417.21677277 C-190.82213785 2412.38809882 -190.8260242 2407.55942891 -190.82915962 2402.73075607 C-190.83387218 2394.23447941 -190.83485814 2385.73820857 -190.83343127 2377.24193081 C-190.83131089 2364.52250484 -190.83492243 2351.8030849 -190.83964605 2339.08365987 C-190.847522 2317.40672559 -190.85061618 2295.72979279 -190.85109198 2274.05285722 C-190.85158655 2252.07991469 -190.85423235 2230.10697399 -190.85949957 2208.13403207 C-190.85983311 2206.73308224 -190.86016658 2205.3321324 -190.86049998 2203.93118257 C-190.8618481 2198.28253007 -190.8632114 2192.63387758 -190.86459208 2186.98522509 C-190.87975645 2124.85689396 -190.88653454 2062.72856328 -190.89101405 2000.60023058 C-190.89107074 1999.81443943 -190.89112743 1999.02864828 -190.89118584 1998.21904528 C-190.89147236 1994.24432072 -190.89175739 1990.26959616 -190.89203995 1986.2948716 C-190.89441539 1952.98929476 -190.89812513 1919.68371812 -190.90207705 1886.37814144 C-190.90396964 1870.4266223 -190.90579815 1854.47510316 -190.90761125 1838.52358401 C-190.90770144 1837.73023696 -190.90779163 1836.93688991 -190.90788455 1836.11950204 C-190.91222075 1797.93701868 -190.91614908 1759.75453528 -190.91961157 1721.57205182 C-190.91968545 1720.7575613 -190.91975932 1719.94307077 -190.91983543 1719.10389872 C-190.92453024 1667.19866526 -190.92735337 1615.29343186 -190.92899835 1563.38819821 C-190.92913393 1559.13278173 -190.92927296 1554.87736526 -190.92941189 1550.62194878 C-190.92963437 1543.79950715 -190.92985574 1536.97706553 -190.93007577 1530.15462391 C-190.93010304 1529.3092093 -190.93013031 1528.46379469 -190.93015841 1527.59276146 C-190.93021352 1525.88411212 -190.93026863 1524.17546278 -190.93032374 1522.46681344 C-190.93071036 1510.48116817 -190.9310983 1498.49552291 -190.93149287 1486.50987764 C-190.93163398 1482.22117265 -190.93177406 1477.93246766 -190.93191177 1473.64376268 C-190.93451591 1392.64650584 -190.93984569 1311.64925092 -190.95579398 1230.65199548 C-190.95596177 1229.79934872 -190.95612956 1228.94670197 -190.95630244 1228.06821743 C-190.96155316 1201.42768637 -190.9671275 1174.78715537 -190.97276175 1148.14662439 C-190.97854278 1120.8112855 -190.98427336 1093.47594661 -190.98971808 1066.14060766 C-190.98988589 1065.29892486 -190.99005369 1064.45724207 -190.99022659 1063.59005374 C-191.0007206 1010.87215953 -191.0075816 958.15426584 -191.01058447 905.43637067 C-191.01065469 904.21492813 -191.01065469 904.21492813 -191.01072633 902.96880997 C-191.01277704 867.20582313 -191.01402108 831.4428363 -191.01437238 795.67984941 C-191.01451565 781.29202587 -191.01475431 766.90420234 -191.01503644 752.5163788 C-191.01508197 750.13082754 -191.01512362 747.74527627 -191.01516455 745.35972501 C-191.01581053 708.87741948 -191.01876584 672.39511613 -191.02862513 635.91281182 C-191.0288375 635.12627511 -191.02904987 634.33973841 -191.02926868 633.52936725 C-191.03269738 620.877278 -191.03631037 608.22518881 -191.03994508 595.57309961 C-191.05026057 559.64836516 -191.05903914 523.7236334 -191.05710042 487.79889721 C-191.05706168 487.06964723 -191.05702294 486.34039725 -191.05698303 485.58904879 C-191.05610637 469.67747354 -191.05439413 453.7658985 -191.0518634 437.85432344 C-191.05086668 431.50790817 -191.04998001 425.16149289 -191.04912817 418.8150776 C-191.04903229 418.12280025 -191.0489364 417.4305229 -191.04883761 416.71726745 C-191.04585105 394.77805724 -191.0520732 372.83886266 -191.06364704 350.89965565 C-191.07532401 328.68991831 -191.07661893 306.48020472 -191.06533136 284.27046678 C-191.05923323 271.6402835 -191.06133423 259.01016607 -191.07558333 246.37998899 C-191.0842297 237.98832948 -191.08196307 229.59671835 -191.07088462 221.20506182 C-191.06491118 216.45031654 -191.06350001 211.69570019 -191.07556948 206.94096355 C-191.16841496 167.75387697 -186.51972937 132.20680463 -167.69151175 97.251849 C-167.37069632 96.64502282 -167.04988089 96.03819665 -166.71934378 95.41298181 C-160.21484107 83.17037792 -152.15607038 72.69158038 -142.76963675 62.517474 C-140.87332844 60.4500702 -139.06121569 58.33434807 -137.25401175 56.189349 C-114.26392072 30.00473506 -79.3792252 13.12639325 -46.06651175 4.939349 C-44.60290213 4.57559167 -44.60290213 4.57559167 -43.10972464 4.20448571 C-28.84584732 0.87196918 -14.5899197 -0.04841385 0 0 Z " fill="#E4E4E4" transform="translate(377.69151175022125,139.74815100431442)"/>
<path d="M0 0 C3.79086139 0.01139344 7.58144164 0.00460579 11.37229347 -0.00688744 C31.02159331 -0.05720869 50.46057228 0.65659735 70.05029297 2.26074219 C71.24526901 2.35614288 72.44024506 2.45154358 73.6714325 2.54983521 C162.10002825 9.68933475 255.69945316 37.68060825 342.47998047 107.79199219 C344.01702465 109.22962555 345.57460667 110.63985621 347.14404297 112.04199219 C358.7423681 122.41709277 368.69147219 133.8421741 378.05029297 146.26074219 C378.46633789 146.80923828 378.88238281 147.35773438 379.31103516 147.92285156 C391.99457395 164.76047563 402.12703254 183.20056545 411.05029297 202.26074219 C411.50178711 203.22246338 411.50178711 203.22246338 411.96240234 204.20361328 C437.0948633 259.01409757 441.2262035 324.69724146 441.18832397 384.08570862 C441.19075057 386.08043168 441.19361543 388.07515425 441.19687331 390.06987613 C441.20452719 395.48254693 441.20624031 400.89520498 441.20692444 406.30788052 C441.20878225 412.17245618 441.21639904 418.03702469 441.22340393 423.90159607 C441.23487541 434.04614228 441.24314788 444.19068688 441.24952316 454.3352375 C441.25946603 469.71385524 441.27856963 485.09245446 441.29982643 500.47105979 C441.30835221 506.66179984 441.31662046 512.85254025 441.32493019 519.0432806 C441.3263177 520.07467017 441.3263177 520.07467017 441.32773325 521.1268959 C441.34967404 537.45609582 441.36948812 553.78529802 441.38818359 570.11450195 C441.38941311 571.18473448 441.38941311 571.18473448 441.39066747 572.27658787 C441.40974169 588.91365819 441.42670861 605.55072839 441.43902588 622.18780518 C441.43955555 622.90303279 441.44008521 623.6182604 441.44063093 624.35516158 C441.44488285 630.12078204 441.44905894 635.88640256 441.45321573 641.6520231 C441.47046447 665.49520133 441.49773859 689.33835077 441.53637611 713.18150426 C441.54183635 716.55762211 441.54716954 719.93374014 441.55241776 723.30985832 C441.55345214 723.97412488 441.55448652 724.63839144 441.55555224 725.32278728 C441.57277658 736.60023787 441.57749659 747.87767222 441.5789925 759.15513485 C441.58111396 769.20500466 441.59414332 779.2548243 441.61547183 789.30467153 C441.62740672 795.0865322 441.63471574 800.86829331 441.62875938 806.65016556 C441.55535754 849.74014672 441.55535754 849.74014672 448.05029297 892.26074219 C448.21754883 892.98310059 448.38480469 893.70545898 448.55712891 894.44970703 C459.70944305 941.73273588 485.98277022 980.39372336 515.01904297 1018.47558594 C539.64896416 1050.8226817 539.64896416 1050.8226817 537.05029297 1070.26074219 C534.69008509 1079.46073616 530.5701661 1086.2075939 523.48779297 1092.57324219 C522.96040527 1093.04834229 522.43301758 1093.52344238 521.88964844 1094.01293945 C517.68765641 1097.76808489 513.35298192 1101.34690483 508.96435547 1104.88183594 C505.6104723 1107.6197915 502.32833313 1110.43287261 499.05029297 1113.26074219 C494.94810552 1116.79697714 490.82226811 1120.28938045 486.61279297 1123.69824219 C481.5108754 1127.83838442 476.55874379 1132.13619602 471.60839844 1136.45483398 C467.8701195 1139.70806193 464.09102918 1142.89327244 460.23779297 1146.01074219 C455.88091044 1149.53743587 451.72353393 1153.23576308 447.58154297 1157.01074219 C444.07229811 1160.13007095 440.41867174 1163.05823352 436.76904297 1166.01074219 C433.27121146 1168.9054993 429.93243893 1171.95663757 426.57763672 1175.01464844 C423.98066904 1177.32261817 421.31625284 1179.51630081 418.61279297 1181.69824219 C413.83744895 1185.56015894 409.31361612 1189.63748442 404.79638672 1193.79589844 C402.1315413 1196.18781516 399.40197472 1198.45329102 396.61279297 1200.69824219 C392.07632567 1204.35709988 387.79163197 1208.20943182 383.52880859 1212.17675781 C379.46621123 1215.93531563 375.2236132 1219.40819135 370.90576172 1222.86621094 C368.20752915 1225.12888749 365.65861598 1227.48360496 363.109375 1229.90942383 C357.76965514 1234.98672486 352.79987124 1239.1416189 346.05029297 1242.26074219 C344.61260991 1243.01039121 343.17510448 1243.76038103 341.73779297 1244.51074219 C332.72740923 1249.11982737 320.3252562 1248.44174434 310.60498047 1246.61230469 C304.08815994 1244.44003118 299.18627927 1240.72263029 294.05029297 1236.26074219 C292.96803322 1235.34800934 291.88461614 1234.43664773 290.80029297 1233.52636719 C283.99576892 1227.78425251 277.36108486 1221.8751451 270.83154297 1215.82324219 C268.3502149 1213.53707475 265.83298481 1211.30201101 263.30029297 1209.07324219 C258.67834312 1204.92322563 254.26231489 1200.58112218 249.86279297 1196.19824219 C249.19731445 1195.53735596 248.53183594 1194.87646973 247.84619141 1194.19555664 C243.37835349 1189.7138331 239.1706897 1185.06208138 235.05029297 1180.26074219 C234.20466797 1179.29652344 233.35904297 1178.33230469 232.48779297 1177.33886719 C216.56458471 1158.86386273 202.51950255 1138.71770525 189.13623047 1118.35058594 C187.4244618 1115.81498853 185.67863208 1113.31704951 183.90185547 1110.82714844 C183.34900879 1110.05201904 182.79616211 1109.27688965 182.2265625 1108.47827148 C181.12502991 1106.93891739 180.01935221 1105.40251947 178.90917969 1103.86938477 C178.40918457 1103.17095459 177.90918945 1102.47252441 177.39404297 1101.75292969 C176.94222656 1101.12757324 176.49041016 1100.5022168 176.02490234 1099.85791016 C175.05029297 1098.26074219 175.05029297 1098.26074219 175.05029297 1096.26074219 C171.03253893 1098.44180867 168.23304128 1100.9999348 165.05029297 1104.26074219 C164.23842529 1105.07784668 163.42655762 1105.89495117 162.59008789 1106.73681641 C161.74551025 1107.58775879 160.90093262 1108.43870117 160.03076172 1109.31542969 C158.59194839 1110.76162492 157.15264816 1112.20733363 155.71313477 1113.65283203 C154.7340353 1114.63695418 153.75583602 1115.6219728 152.77856445 1116.60791016 C147.59859745 1121.83238909 142.39294754 1126.97213188 136.80004883 1131.75830078 C134.21191925 1133.98061827 131.73397194 1136.31063003 129.23779297 1138.63574219 C124.6686596 1142.85224122 119.98406544 1146.86832262 115.13623047 1150.76464844 C112.80841853 1152.64752417 110.50571276 1154.5492485 108.21435547 1156.47558594 C80.1436973 1180.01307384 49.19348432 1200.58368549 16.05029297 1216.26074219 C14.63466064 1216.93266602 14.63466064 1216.93266602 13.19042969 1217.61816406 C10.02379466 1219.11430597 6.85090762 1220.59626282 3.67529297 1222.07324219 C2.67651123 1222.54189697 1.67772949 1223.01055176 0.64868164 1223.4934082 C-4.67079469 1225.93959721 -9.88115162 1227.94893432 -15.51806641 1229.52441406 C-18.013185 1230.27996403 -20.36498455 1231.20576693 -22.77001953 1232.20996094 C-28.66340056 1234.62297179 -34.69153193 1236.37695 -40.82470703 1238.07324219 C-42.05761475 1238.41436035 -43.29052246 1238.75547852 -44.56079102 1239.10693359 C-60.48634761 1243.41727263 -76.72063924 1246.35056679 -92.94970703 1249.26074219 C-94.4767627 1249.54921021 -94.4767627 1249.54921021 -96.03466797 1249.84350586 C-104.20377621 1251.32413918 -112.40530574 1252.00241479 -120.67431641 1252.63842773 C-123.05044828 1252.82137442 -125.42585784 1253.01205223 -127.80126953 1253.20410156 C-132.51574011 1253.58077444 -137.23201765 1253.92703331 -141.94970703 1254.26074219 C-142.66050415 1254.3123349 -143.37130127 1254.36392761 -144.1036377 1254.41708374 C-157.04683939 1255.3337969 -169.97849596 1255.44695156 -182.95068359 1255.44604492 C-186.41663087 1255.44822142 -189.88225355 1255.46642436 -193.34814453 1255.48535156 C-214.33825159 1255.53948238 -235.2196562 1254.42285708 -255.94970703 1251.01074219 C-256.60783386 1250.90469666 -257.26596069 1250.79865112 -257.94403076 1250.68939209 C-279.11035783 1247.26701208 -299.68563159 1242.27552551 -319.94970703 1235.26074219 C-320.79146484 1234.97054199 -321.63322266 1234.6803418 -322.50048828 1234.38134766 C-333.29778195 1230.62202554 -343.72083739 1226.37286801 -353.94970703 1221.26074219 C-354.78985352 1220.84727539 -355.63 1220.43380859 -356.49560547 1220.0078125 C-375.96196468 1210.38143947 -394.11032024 1198.99468363 -410.94970703 1185.26074219 C-411.46952148 1184.84244141 -411.98933594 1184.42414063 -412.52490234 1183.99316406 C-427.64965313 1171.75843497 -442.25569282 1157.83788325 -453.94970703 1142.26074219 C-454.85989927 1141.10089333 -455.77146285 1139.94211989 -456.68408203 1138.78417969 C-491.94775667 1093.52874441 -510.91510085 1038.88457004 -519.69970703 982.69824219 C-519.89854492 981.44688477 -520.09738281 980.19552734 -520.30224609 978.90625 C-523.53918053 957.09164384 -524.33086208 935.16167037 -524.26220703 913.13574219 C-524.25997131 911.34372375 -524.25997131 911.34372375 -524.25769043 909.51550293 C-524.21536869 890.56610346 -523.42104851 872.05651624 -520.94970703 853.26074219 C-520.69104756 851.0303715 -520.43322775 848.79990327 -520.17626953 846.56933594 C-515.78814166 811.05660124 -504.73194893 775.7409893 -489.94970703 743.26074219 C-489.30870055 741.81559884 -488.66806177 740.37029232 -488.02783203 738.92480469 C-475.0925174 710.16141136 -457.021368 683.55770213 -436.31738281 659.83325195 C-435.37026403 658.74428514 -434.43166665 657.64787023 -433.5 656.5456543 C-428.3987363 650.5766339 -422.89361294 645.01851939 -417.34472656 639.47045898 C-415.71143255 637.83498337 -414.08632233 636.19166511 -412.46142578 634.54785156 C-405.93497485 627.98684691 -399.21059842 622.01064858 -391.94970703 616.26074219 C-390.92192185 615.39763387 -389.89849952 614.52924523 -388.88330078 613.65136719 C-374.00845656 600.89484976 -357.75274171 590.28098608 -340.94970703 580.26074219 C-340.12164551 579.76219727 -339.29358398 579.26365234 -338.44042969 578.75 C-317.61916066 566.26793515 -295.83162094 555.94641316 -273.26220703 547.07324219 C-272.5651062 546.79884308 -271.86800537 546.52444397 -271.14978027 546.24172974 C-264.23630351 543.53423464 -257.32909201 540.94886679 -250.18383789 538.9074707 C-247.98432356 538.27076286 -245.82131489 537.56600452 -243.65283203 536.83105469 C-207.87560771 524.78553506 -170.9522279 516.53554952 -133.94970703 509.26074219 C-133.27939453 509.12837158 -132.60908203 508.99600098 -131.91845703 508.85961914 C-73.55499405 497.39641387 -13.78691599 492.16807183 45.31529808 486.06253242 C52.96695826 485.27128689 60.61708884 484.46583921 68.26705933 483.65844727 C74.60054816 482.99010108 80.93460883 482.32725207 87.26879883 481.66558838 C90.2184997 481.3574482 93.16803024 481.04774843 96.11743164 480.73675537 C100.1608926 480.31079498 104.20513214 479.89273396 108.24951172 479.47558594 C109.42358078 479.35107559 110.59764984 479.22656525 111.80729675 479.09828186 C113.44678032 478.93107887 113.44678032 478.93107887 115.11938477 478.76049805 C116.05405075 478.66328964 116.98871674 478.56608124 117.95170593 478.46592712 C121.98827003 478.1986304 126.00659869 478.22038076 130.05029297 478.26074219 C129.96514356 466.66255557 129.86998782 455.06449547 129.76276588 443.46649075 C129.71325409 438.07851567 129.66692849 432.69055607 129.62841797 427.30249023 C129.59098467 422.08278988 129.54448603 416.86323563 129.49222946 411.64366341 C129.47398809 409.67265502 129.45877453 407.70161571 129.44694901 405.7305584 C129.3341833 387.54969782 128.44182657 369.27191945 125.36279297 351.32324219 C125.11287598 349.86337891 125.11287598 349.86337891 124.85791016 348.37402344 C121.70586153 331.02941725 116.78864656 314.60658035 108.05029297 299.26074219 C107.52435547 298.31070312 106.99841797 297.36066406 106.45654297 296.38183594 C103.14124501 290.60651636 99.30545219 285.37570677 95.05029297 280.26074219 C94.39416016 279.45765625 93.73802734 278.65457031 93.06201172 277.82714844 C73.66894691 255.10145457 43.9743022 243.43695541 15.55029297 236.94824219 C14.85766357 236.78880127 14.16503418 236.62936035 13.45141602 236.46508789 C-26.86953218 227.79036627 -75.18361667 234.46967317 -111.94970703 252.26074219 C-112.73780762 252.63569824 -113.5259082 253.0106543 -114.33789062 253.39697266 C-130.33655054 261.09646804 -144.10891619 271.00256436 -156.94970703 283.26074219 C-157.60841797 283.85628906 -158.26712891 284.45183594 -158.94580078 285.06542969 C-179.38695659 304.23158383 -191.43942652 331.3082006 -197.94970703 358.01074219 C-202.27969663 375.69019916 -207.9405827 390.29445342 -223.48876953 401.01074219 C-233.09936673 406.38047269 -243.54639909 405.41390342 -254.12548828 404.21606445 C-255.8804276 404.0305131 -255.8804276 404.0305131 -257.67082024 403.84121323 C-260.86673455 403.50119133 -264.06143659 403.1516893 -267.25585318 402.79792428 C-270.66598965 402.42267853 -274.07746435 402.0599982 -277.48880005 401.69584656 C-284.05083164 400.99346921 -290.61161812 400.28008182 -297.17203176 399.56276673 C-304.70177845 398.73994177 -312.23273616 397.92848802 -319.76383519 397.11814857 C-329.48958616 396.07159166 -339.21512051 395.02306919 -348.93991089 393.96762085 C-365.6304401 392.15630933 -382.32288012 390.3657661 -399.02001953 388.61621094 C-400.81842739 388.42731763 -402.61682844 388.23835951 -404.41522217 388.04933167 C-414.04487502 387.03713736 -414.04487502 387.03713736 -423.67529297 386.03225708 C-427.85324491 385.59785329 -432.03039809 385.15618414 -436.20751953 384.71386719 C-437.96227097 384.5335218 -437.96227097 384.5335218 -439.75247192 384.34953308 C-449.09139508 383.35188017 -457.78824757 382.27879951 -466.19970703 377.94824219 C-467.33923828 377.37460937 -468.47876953 376.80097656 -469.65283203 376.20996094 C-474.82699601 373.15082844 -478.94265386 369.84331245 -482.19970703 364.69824219 C-482.91900391 363.58255859 -482.91900391 363.58255859 -483.65283203 362.44433594 C-492.23084145 348.00124176 -486.97823764 330.39382848 -483.16992188 315.13671875 C-480.25259574 303.78529507 -477.08212893 292.50071109 -473.76220703 281.26074219 C-473.53678223 280.49117187 -473.31135742 279.72160156 -473.07910156 278.92871094 C-471.61706271 274.07860676 -469.86501301 269.40472903 -467.94750977 264.71679688 C-467.02835631 262.45433448 -466.15628794 260.18086508 -465.30126953 257.89355469 C-452.08729704 223.08026555 -432.76844117 190.76303718 -409.29443359 161.9140625 C-408.01140197 160.33659515 -406.74191276 158.7481418 -405.47314453 157.15917969 C-398.62557801 148.76939175 -391.01779953 141.11734474 -383.38720703 133.44824219 C-382.85649597 132.9122641 -382.32578491 132.37628601 -381.7789917 131.82406616 C-374.83589314 124.82778585 -367.66713996 118.41058386 -359.94970703 112.26074219 C-358.83603856 111.31437267 -357.72799616 110.36128001 -356.62939453 109.39746094 C-348.18137641 102.02015263 -339.23609038 95.54074244 -329.94970703 89.26074219 C-329.26392578 88.79667969 -328.57814453 88.33261719 -327.87158203 87.85449219 C-316.24709825 80.04567865 -304.18726006 73.05830915 -291.94970703 66.26074219 C-291.23911133 65.86145508 -290.52851562 65.46216797 -289.79638672 65.05078125 C-267.27630365 52.43997223 -243.16160989 43.05470658 -218.94970703 34.26074219 C-218.18803223 33.98149902 -217.42635742 33.70225586 -216.64160156 33.41455078 C-204.02370948 28.82709342 -190.93874417 25.60335036 -177.94970703 22.26074219 C-176.81726562 21.9690918 -175.68482422 21.67744141 -174.51806641 21.37695312 C-142.41911481 13.19217772 -109.97965345 6.99395949 -77.01220703 3.69824219 C-75.29263794 3.52566895 -75.29263794 3.52566895 -73.53833008 3.34960938 C-69.34446969 2.95205486 -65.14870377 2.59905465 -60.94970703 2.26074219 C-59.93745056 2.17709412 -58.92519409 2.09344604 -57.88226318 2.00726318 C-38.56438452 0.44693937 -19.37312765 -0.05869445 0 0 Z " fill="#333333" transform="translate(1493.94970703125,636.7392578125)"/>
<path d="M0 0 C1.17755859 -0.04253906 1.17755859 -0.04253906 2.37890625 -0.0859375 C11.23481796 1.24866988 18.89674666 6.1960781 26.4375 10.75 C38.17215055 17.71208453 50.11098443 24.21771933 62.15722656 30.62158203 C65.32035305 32.31238096 68.47045032 34.02501913 71.6171875 35.74609375 C103.57341889 53.16268247 136.2534358 69.4318655 169.4375 84.375 C170.85927434 85.02017526 172.28081128 85.66587389 173.70214844 86.31201172 C205.89384486 100.94021457 238.40585393 114.74590604 271.4375 127.375 C272.15341309 127.64894592 272.86932617 127.92289185 273.60693359 128.20513916 C319.15081728 145.61574944 365.1545598 161.64616132 411.87438965 175.60894775 C413.53377841 176.10489928 415.19304743 176.60125172 416.85217285 177.0980835 C442.00888641 184.62995157 467.25844969 191.66474792 492.70214844 198.16259766 C495.63715886 198.91237428 498.57039673 199.6681482 501.50097656 200.43505859 C552.66499077 213.82122452 604.70988385 223.86694663 656.8125 232.8125 C658.27236328 233.06441101 658.27236328 233.06441101 659.76171875 233.32141113 C669.59619505 235.01150211 679.40274006 236.56053639 689.32398987 237.63792419 C694.00247958 238.16110576 698.61183924 238.90926611 703.23828125 239.78125 C714.36991221 241.8496271 725.61355616 243.094762 736.85229492 244.42724609 C740.57347446 244.86888482 744.29360834 245.31859952 748.01367188 245.76953125 C774.87280775 249.00220255 801.76755333 251.61814526 828.74438477 253.62768555 C831.468119 253.83082237 834.19136983 254.03912835 836.91430664 254.25268555 C880.41851011 257.66034764 923.85108826 258.71191777 967.48266602 258.63574219 C974.07596056 258.62430719 980.66909429 258.63115612 987.26238346 258.64262772 C1015.41922022 258.68411841 1043.47570427 258.4090344 1071.58065796 256.61877441 C1074.966316 256.40478152 1078.35204137 256.20910322 1081.73950195 256.02636719 C1086.70351637 255.75641045 1091.66456061 255.45401477 1096.625 255.125 C1097.51019318 255.06630737 1098.39538635 255.00761475 1099.30740356 254.94714355 C1157.31501214 251.02950185 1215.10746788 243.97211362 1272.49121094 234.68884277 C1275.42031285 234.21651958 1278.3509519 233.75389848 1281.28125 233.2890625 C1291.98244478 231.56990681 1302.61521435 229.60103268 1313.23291016 227.42578125 C1319.27057646 226.19252474 1325.31496176 225.0185035 1331.37890625 223.921875 C1406.90285773 210.21066367 1481.38473333 190.2492274 1554.39697266 166.67675781 C1558.27492885 165.42520554 1562.15822076 164.19125258 1566.04296875 162.9609375 C1568.29952105 162.24492366 1570.55603451 161.52878739 1572.8125 160.8125 C1573.79307373 160.5019165 1574.77364746 160.19133301 1575.78393555 159.87133789 C1580.42963503 158.38708224 1585.01526687 156.8175251 1589.56982422 155.07397461 C1593.81432325 153.48547778 1598.15099755 152.15209876 1602.4609375 150.75390625 C1605.35330412 149.78197507 1608.17622296 148.69201477 1611.00244141 147.54223633 C1616.42271243 145.36305705 1621.89045288 143.33114173 1627.375 141.3203125 C1629.4928333 140.53965246 1631.61050277 139.75854785 1633.72802734 138.97705078 C1634.82411316 138.57262756 1635.92019897 138.16820435 1637.04949951 137.75152588 C1656.36791022 130.61531353 1675.54417642 123.25208818 1694.5234375 115.2578125 C1723.19918221 103.18846377 1723.19918221 103.18846377 1738.296875 108.47265625 C1745.29281124 111.42167317 1751.21806189 116.9066296 1754.61328125 123.7421875 C1756.76440666 130.61355492 1756.44033852 138.17365565 1753.375 144.6875 C1749.1737072 152.56669221 1742.6809502 158.37229983 1735.4375 163.375 C1734.66913818 163.91697021 1733.90077637 164.45894043 1733.10913086 165.01733398 C1731.44178586 166.19058947 1729.77100386 167.35897276 1728.09716797 168.52294922 C1725.32758005 170.45154239 1722.57146797 172.39837805 1719.81640625 174.34765625 C1707.91413094 182.73808151 1695.8516501 190.76475047 1683.4375 198.375 C1682.37869629 199.0261377 1681.31989258 199.67727539 1680.22900391 200.34814453 C1665.12183108 209.63136458 1649.93108594 218.74721091 1634.4375 227.375 C1633.58091797 227.85211426 1632.72433594 228.32922852 1631.84179688 228.82080078 C1564.41426489 266.24033602 1493.23422465 298.07940936 1419.74853516 321.63232422 C1414.39850806 323.35161245 1409.07486271 325.13745402 1403.78125 327.0234375 C1402.98460937 327.30703125 1402.18796875 327.590625 1401.3671875 327.8828125 C1399.77758535 328.45016246 1398.18899678 329.02036237 1396.6015625 329.59375 C1389.06484864 332.26651434 1381.40424639 334.4893834 1373.72589111 336.71075439 C1371.47420056 337.36434702 1369.22481978 338.02531682 1366.97607422 338.68896484 C1269.12810234 367.53993745 1169.02213759 386.21732589 1067.4375 395.375 C1066.2629425 395.48261658 1065.08838501 395.59023315 1063.87823486 395.70111084 C1025.87859269 399.14832882 988.01028991 399.74196112 949.875 399.75 C948.76170696 399.75104485 947.64841393 399.75208969 946.50138474 399.7531662 C917.75325828 399.77798621 889.12762154 399.24600818 860.4375 397.375 C859.22256866 397.29721313 858.00763733 397.21942627 856.75588989 397.13928223 C849.58231099 396.67191298 842.41563984 396.13808604 835.25 395.5625 C833.68372864 395.43902191 833.68372864 395.43902191 832.08581543 395.31304932 C802.23889223 392.9454467 771.82686584 390.51287995 742.375 384.9375 C735.99700805 383.75697789 729.60714902 382.83877163 723.17578125 382.00390625 C712.2874353 380.55019294 701.48959609 378.73858831 690.6875 376.75 C689.75705872 376.57992432 688.82661743 376.40984863 687.86798096 376.23461914 C660.73639203 371.26147851 633.7963527 365.39647821 606.9375 359.125 C606.27159851 358.97023193 605.60569702 358.81546387 604.9196167 358.65600586 C594.33878394 356.18728844 583.88458579 353.35205327 573.4375 350.375 C572.56484497 350.12633179 571.69218994 349.87766357 570.79309082 349.62145996 C565.10328139 347.99713934 559.41698809 346.3608303 553.73242188 344.71826172 C550.80915042 343.87403265 547.88506435 343.03266708 544.9609375 342.19140625 C473.04810991 321.45794768 402.98369506 294.5769362 335.4375 262.375 C334.26622559 261.82021973 333.09495117 261.26543945 331.88818359 260.69384766 C304.49437941 247.71066113 277.38258334 234.10119781 251.13232422 218.92382812 C247.33335051 216.74039913 243.5092159 214.60267274 239.68676758 212.46069336 C228.13740971 205.97888149 216.7364759 199.28318215 205.4375 192.375 C204.60428223 191.86936523 203.77106445 191.36373047 202.91259766 190.84277344 C188.42719466 182.033675 174.29539673 172.71008265 160.1875 163.3125 C159.30906433 162.72807129 158.43062866 162.14364258 157.52557373 161.54150391 C132.07257461 144.5914599 107.19561928 126.91121725 82.93896484 108.29003906 C80.60753045 106.50516971 78.268683 104.73071425 75.92578125 102.9609375 C66.5165038 95.84156164 57.35890652 88.46227703 48.29150391 80.91308594 C45.79273232 78.84009924 43.27149345 76.79525238 40.75 74.75 C34.82940152 69.91156529 29.0406021 64.923411 23.24902344 59.93212891 C21.44387604 58.38048064 19.63311441 56.83566415 17.8203125 55.29296875 C11.38905297 49.81510449 5.04206883 44.27680376 -1.16015625 38.5390625 C-3.19397902 36.70696849 -5.27121582 35.04280588 -7.4375 33.375 C-12.00337598 29.48025278 -14.88043437 24.05165853 -15.97265625 18.1640625 C-16.17582251 13.55307183 -15.07377873 10.18521601 -12.5625 6.375 C-8.64241082 2.84691974 -5.38377076 0.08641687 0 0 Z " fill="#FE9201" transform="translate(544.5625,1883.625)"/>
<path d="M0 0 C1.05004211 0.00165665 2.10008423 0.00331329 3.1819458 0.00502014 C5.7378421 0.00929391 8.29372134 0.01529681 10.84960938 0.02294922 C10.92081797 14.17856533 10.97292702 28.33415234 11.00504589 42.48991299 C11.02048649 49.06796074 11.0413117 55.64589432 11.07592773 62.22387695 C11.23168097 92.63006019 10.88193756 122.74900504 8.03279686 153.03466797 C7.63740982 157.32612185 7.29336119 161.62214257 6.93904114 165.91714478 C5.89460471 177.39483875 3.61104905 188.51259852 0.97460938 199.71044922 C0.80965973 200.41120575 0.64471008 201.11196228 0.47476196 201.83395386 C-2.97520043 216.31474235 -7.25251779 230.46104065 -12.83789062 244.27294922 C-13.267229 245.33650635 -13.69656738 246.40006348 -14.13891602 247.49584961 C-35.4422431 299.42440798 -72.21104906 346.52662426 -124.79931641 369.06445312 C-137.55518691 374.26482152 -150.512724 378.06826712 -164.15039062 380.02294922 C-165.3646875 380.20599609 -166.57898437 380.38904297 -167.83007812 380.57763672 C-201.10761128 384.59257811 -237.09796349 377.2715758 -263.94726562 356.61279297 C-291.77953358 334.39241217 -307.23308672 304.91457177 -314.90039062 270.46044922 C-315.09906738 269.57615234 -315.29774414 268.69185547 -315.50244141 267.78076172 C-318.81845406 252.07303426 -319.53023111 236.52696573 -319.46289062 220.52294922 C-319.4600708 219.55395691 -319.45725098 218.5849646 -319.4543457 217.58660889 C-319.31226296 185.03424564 -314.5381538 153.56362996 -300.15039062 124.02294922 C-299.84166016 123.37406738 -299.53292969 122.72518555 -299.21484375 122.05664062 C-291.75375917 106.54689134 -281.61704676 92.74662321 -269.58105469 80.48876953 C-268.21624215 79.09041894 -266.88164691 77.66276451 -265.54882812 76.23388672 C-242.63425512 52.21166064 -210.46072701 35.24688953 -179.15039062 25.02294922 C-178.08933105 24.67272705 -178.08933105 24.67272705 -177.00683594 24.31542969 C-166.28802456 20.82682564 -155.41039987 18.0087688 -144.46289062 15.33544922 C-143.30055908 15.05000244 -142.13822754 14.76455566 -140.94067383 14.47045898 C-125.78865794 10.84809571 -110.45617682 8.51867574 -95.02539062 6.46044922 C-94.21525513 6.35211761 -93.40511963 6.24378601 -92.57043457 6.13217163 C-72.61999252 3.47829228 -52.74574905 1.93360224 -32.65039062 0.89794922 C-31.80536987 0.85320465 -30.96034912 0.80846008 -30.08972168 0.76235962 C-20.05403213 0.23964204 -10.05008387 -0.03062033 0 0 Z " fill="#DFDFDF" transform="translate(1613.150390625,1289.97705078125)"/>
<path d="M0 0 C5.12257626 3.61593619 9.74755271 7.53185375 14.3125 11.8125 C19.18374099 16.38034434 24.18784631 20.6812938 29.3984375 24.86328125 C31.94986729 26.95882494 34.38326773 29.13963155 36.8125 31.375 C41.24358601 35.41345813 45.87880988 39.10238396 50.61425781 42.77075195 C54.68685447 45.93631027 58.64819797 49.20374189 62.5625 52.5625 C67.72439501 56.97844296 73.02654762 61.17308231 78.4375 65.28125 C81.03962436 67.25792043 83.61815958 69.26214945 86.1875 71.28125 C95.88064342 78.89432429 105.72667738 86.23593136 115.75878906 93.39550781 C118.73091047 95.52326183 121.68761785 97.67192702 124.64501953 99.82006836 C128.42121212 102.55898624 132.20901112 105.28161127 136 108 C136.73283203 108.52609863 137.46566406 109.05219727 138.22070312 109.59423828 C167.56814863 130.5906281 198.17334403 149.87675562 229.17480469 168.31787109 C231.57040271 169.74421662 233.96187178 171.17707599 236.3515625 172.61328125 C256.61566036 184.73358161 277.48597858 195.85717098 298.46386719 206.68115234 C300.7905151 207.89106301 303.10479422 209.12059512 305.4140625 210.36328125 C330.98642528 224.10248794 357.36576104 236.47357166 384 248 C384.69957825 248.30294983 385.39915649 248.60589966 386.11993408 248.91802979 C422.85360672 264.80074118 460.12830929 279.07182695 498 292 C498.70590271 292.24103455 499.41180542 292.48206909 500.13909912 292.73040771 C504.83854248 294.33282706 509.54252965 295.9213287 514.25 297.5 C515.39605713 297.88518799 516.54211426 298.27037598 517.72290039 298.66723633 C526.75366127 301.66566185 535.86019658 304.35870275 545 307 C546.61719249 307.46905833 548.23437987 307.93813426 549.8515625 308.40722656 C609.40156897 325.65126744 669.5922528 340.12995478 730.89599609 349.67089844 C732.74104583 349.95949522 734.58364961 350.26364064 736.42578125 350.5703125 C744.58813304 351.9042377 752.79876874 352.84171264 761.01538086 353.77172852 C766.64409049 354.42292776 772.24360685 355.17994934 777.84153748 356.0528717 C790.02448164 357.9475532 802.23135642 359.29584783 814.5 360.5 C815.5709491 360.60638794 816.64189819 360.71277588 817.74530029 360.8223877 C833.35616826 362.36615822 848.97384087 363.69029333 864.625 364.75 C865.48810791 364.80889404 866.35121582 364.86778809 867.24047852 364.9284668 C888.76127509 366.37696208 910.27503496 367.15945324 931.84375 367.23828125 C932.87958662 367.24314608 933.91542324 367.2480109 934.98264885 367.25302315 C942.82176211 367.28927914 950.66080969 367.30571867 958.5 367.3125 C959.65548969 367.31365059 960.81097939 367.31480118 962.00148392 367.31598663 C1000.50522532 367.3425826 1038.64052303 366.51461349 1077 363 C1078.20807312 362.89109436 1079.41614624 362.78218872 1080.66082764 362.66998291 C1130.45858735 358.15679667 1179.87711067 351.31558769 1229 342 C1229.8544873 341.83864563 1230.70897461 341.67729126 1231.58935547 341.51104736 C1294.75243565 329.56612796 1357.10192559 313.66042455 1417.98803711 293.02001953 C1420.45617068 292.1841711 1422.92596876 291.35415329 1425.3984375 290.53125 C1426.45720093 290.17861084 1426.45720093 290.17861084 1427.53735352 289.81884766 C1429.44500528 289.18453973 1431.35314119 288.55168778 1433.26147461 287.91943359 C1489.52264079 269.20379639 1543.72108879 245.94968801 1597 220 C1597.88381348 219.56977539 1598.76762695 219.13955078 1599.67822266 218.69628906 C1613.00187743 212.1856647 1626.03863717 205.2020114 1639 198 C1639.91088379 197.49629883 1640.82176758 196.99259766 1641.76025391 196.47363281 C1672.0559134 179.69334362 1702.04966679 161.66938376 1730.11523438 141.35839844 C1732.00043898 139.99968362 1733.89647225 138.65766935 1735.796875 137.3203125 C1749.98587858 127.78616734 1749.98587858 127.78616734 1761 115 C1761.33 115.99 1761.66 116.98 1762 118 C1762.33 118.825 1762.66 119.65 1763 120.5 C1765.83687054 127.59217634 1766.41755977 135.58262495 1764.05859375 142.93359375 C1759.81081718 151.68214925 1753.96882457 157.11333298 1746.1875 162.6875 C1745.34799805 163.2969043 1744.50849609 163.90630859 1743.64355469 164.53417969 C1735.85678269 170.16171835 1727.9658179 175.62980879 1720 181 C1719.39269043 181.41169434 1718.78538086 181.82338867 1718.15966797 182.24755859 C1681.01051044 207.41568919 1641.89848433 229.52456311 1602 250 C1600.89221191 250.57089355 1599.78442383 251.14178711 1598.64306641 251.72998047 C1578.78022476 261.93446339 1558.56869243 271.19396877 1538.08972168 280.09118652 C1536.10196291 280.95565665 1534.11564889 281.82334668 1532.12988281 282.69238281 C1438.56018 323.58692013 1339.95611573 352.52331373 609.63720703 357.14794922 C605.87972781 356.2150247 602.11809415 355.30067958 598.35412598 354.39433289 C582.28716101 350.52324865 566.44558328 346.17251344 550.69433594 341.15869141 C546.54787389 339.85819518 542.38896909 338.60374192 538.2265625 337.35546875 C480.75900059 320.07444992 424.64835986 298.78154153 370 274 C368.95344238 273.52626953 367.90688477 273.05253906 366.82861328 272.56445312 C332.86970084 257.15212804 299.2474972 240.88227699 266.875 222.34375 C261.59824479 219.32538866 256.27845039 216.38994193 250.95117188 213.46191406 C237.40021047 206.0039005 224.12229051 198.18714177 211 190 C210.17064941 189.4834082 209.34129883 188.96681641 208.48681641 188.43457031 C196.22361811 180.78021083 184.08176788 172.9371499 172 165 C171.03336426 164.36513672 170.06672852 163.73027344 169.07080078 163.07617188 C156.49359158 154.79791226 144.10008507 146.33636099 131.95947266 137.43017578 C129.0134056 135.27990655 126.03740852 133.17256936 123.0625 131.0625 C110.03318736 121.78011685 97.17449321 112.28540435 84.66064453 102.31787109 C82.97645845 100.98131766 81.28461989 99.65512479 79.58984375 98.33203125 C67.73698321 89.07721858 56.03444549 79.64170225 44.58837891 69.88720703 C41.20013268 67.00217616 37.77126361 64.17495149 34.3125 61.375 C29.86096192 57.75165505 25.57617545 53.98036128 21.33203125 50.1171875 C19.24176111 48.21948831 17.13013885 46.35266585 15 44.5 C13.66616399 43.33390807 12.33286675 42.16719969 11 41 C9.74123047 39.89978516 9.74123047 39.89978516 8.45703125 38.77734375 C-5.42836925 26.49173829 -5.42836925 26.49173829 -6.21875 18.8984375 C-6.42246919 13.82243423 -5.78474003 10.39132081 -3 6 C-2.34 5.34 -1.68 4.68 -1 4 C-0.3574765 1.93125966 -0.3574765 1.93125966 0 0 Z " fill="#ADADAD" transform="translate(535,1915)"/>
<path d="M0 0 C1.0307666 0.10183594 2.0615332 0.20367188 3.12353516 0.30859375 C68.22162702 6.98849296 68.22162702 6.98849296 82.78125 24.015625 C91.08986938 35.19130318 90.44094209 49.16306444 90.4375 62.4375 C90.4385675 63.31215912 90.43963501 64.18681824 90.44073486 65.08798218 C90.39259855 92.66102728 85.58564488 119.27914469 79 146 C78.69908447 147.25659424 78.69908447 147.25659424 78.39208984 148.53857422 C75.88385362 158.97913445 72.75323794 169.2066322 69.5 179.4375 C68.94832153 181.17954712 68.94832153 181.17954712 68.38549805 182.95678711 C65.95172999 190.48193552 63.11354751 197.73362683 60 205 C59.23319033 206.86954421 58.47013286 208.74063205 57.7109375 210.61328125 C38.10974689 258.59736333 3.43053655 331.25728216 -46.4765625 355.1875 C-50.9693302 356.63408774 -55.34685155 356.65675068 -60 356 C-64.00474838 353.517056 -64.7746804 351.71153557 -66.1875 347.25 C-66.61850704 339.55525669 -62.80082356 332.01533995 -60 325 C-59.71479492 324.28038086 -59.42958984 323.56076172 -59.13574219 322.81933594 C-57.91735183 319.75197266 -56.69052659 316.68816347 -55.453125 313.62841797 C-46.44064717 291.30167312 -37.90575289 268.74119839 -30 246 C-29.57509277 244.78119141 -29.15018555 243.56238281 -28.71240234 242.30664062 C-17.7640486 210.779209 -8.43056222 178.9732317 -3 146 C-2.88060059 145.29407715 -2.76120117 144.5881543 -2.63818359 143.86083984 C-1.66900604 137.327929 -1.77777587 130.71482473 -1.75 124.125 C-1.729375 122.90941406 -1.70875 121.69382812 -1.6875 120.44140625 C-1.63959714 109.33991908 -3.34801815 99.46602247 -11 91 C-18.18188825 85.08233927 -27.21138064 82.55271102 -36 80 C-37.01578125 79.7009375 -38.0315625 79.401875 -39.078125 79.09375 C-57.60150009 74.24469893 -77.33916066 74.69999817 -96.32910156 74.79418945 C-100.09967934 74.81237786 -103.87000792 74.81469848 -107.640625 74.81445312 C-135.59373322 74.84997849 -163.13230345 76.23169516 -190.91473389 79.13873291 C-193.94909568 79.45417224 -196.98429497 79.76106056 -200.01955986 80.06766891 C-214.97707421 81.57958885 -229.92787329 83.10980658 -244.8289032 85.11776733 C-264.52930989 87.64562367 -264.52930989 87.64562367 -271 83 C-273.80429119 80.47613792 -273.99301916 79.05235631 -274.5 75.25 C-274.22431431 69.29518911 -271.20327446 65.19350569 -267.07275391 61.08129883 C-261.79406622 56.34528555 -256.37230629 52.36250176 -250.3125 48.6875 C-249.40749756 48.13481445 -248.50249512 47.58212891 -247.57006836 47.01269531 C-214.27403527 27.00354241 -177.87490899 14.95496104 -140 7 C-139.28231445 6.84337891 -138.56462891 6.68675781 -137.82519531 6.52539062 C-93.04393654 -3.22259928 -45.49208444 -4.56824279 0 0 Z " fill="#FE9201" transform="translate(2381,1848)"/>
<path d="M0 0 C0.33 0 0.66 0 1 0 C1.03440186 0.61480225 1.06880371 1.22960449 1.10424805 1.86303711 C3.84457935 48.22774339 12.90912781 94.4689088 32 137 C32.44714355 137.9998291 32.89428711 138.9996582 33.35498047 140.02978516 C51.43762036 180.02513318 78.63739882 218.36582648 114 245 C115.18426227 245.92362263 116.36780259 246.84817138 117.55078125 247.7734375 C142.82406217 267.35146583 171.03460551 281.99458592 201 293 C202.17852539 293.43965088 202.17852539 293.43965088 203.38085938 293.88818359 C227.54753314 302.8083714 253.03909709 307.75415614 278.5 311.125 C279.78237549 311.29604248 281.06475098 311.46708496 282.38598633 311.64331055 C300.27914262 313.92853753 317.98565568 314.20147171 336 314.1875 C337.19464874 314.18756042 338.38929749 314.18762085 339.62014771 314.18768311 C357.42946048 314.17486926 375.08431443 313.76815563 392.83349609 312.25585938 C395.71835194 312.02275768 398.59795013 311.84947088 401.48828125 311.703125 C437.86065142 309.61237129 478.56982029 301.66235952 512 287 C513.81199767 286.33196921 515.62458284 285.66553143 517.4375 285 C536.48595606 277.66863547 554.47493171 268.42140329 572 258 C572.73653809 257.56333008 573.47307617 257.12666016 574.23193359 256.67675781 C590.54416661 246.93038215 606.16185939 235.86085167 621 224 C621.9269165 223.26015869 621.9269165 223.26015869 622.87255859 222.50537109 C635.96691313 212.02279375 648.7315629 201.22918588 660.99609375 189.78515625 C663.56207692 187.39374075 666.17895129 185.06699528 668.8125 182.75 C674.3364776 177.82863814 679.48982843 172.53508687 684.64379883 167.23144531 C685.30790771 166.5556543 685.9720166 165.87986328 686.65625 165.18359375 C687.55053711 164.26404907 687.55053711 164.26404907 688.46289062 163.32592773 C690 162 690 162 692 162 C692.28875 161.38125 692.5775 160.7625 692.875 160.125 C694 158 694 158 696 156 C696.99 156 697.98 156 699 156 C700.29589844 157.39501953 700.29589844 157.39501953 701.609375 159.3828125 C702.35864258 160.49861694 702.35864258 160.49861694 703.12304688 161.63696289 C703.65994141 162.45801514 704.19683594 163.27906738 704.75 164.125 C705.92170936 165.87641291 707.09359118 167.62771045 708.265625 169.37890625 C708.87728516 170.30074707 709.48894531 171.22258789 710.11914062 172.17236328 C713.21359831 176.8244932 716.35468802 181.44465454 719.5 186.0625 C720.12777344 186.98434082 720.75554688 187.90618164 721.40234375 188.85595703 C742.61521091 219.9043778 766.17347417 250.80412901 794.98828125 275.26953125 C797.48283603 277.41533274 799.89218982 279.64585677 802.3125 281.875 C807.71275753 286.79656434 813.28983345 291.44410908 819 296 C819.68707031 296.57878906 820.37414063 297.15757812 821.08203125 297.75390625 C832.0006743 306.62669358 844.43604422 307.38229543 858 306 C865.08897766 304.51552204 870.35007519 301.40694135 876 297 C877.16015625 296.34064453 877.16015625 296.34064453 878.34375 295.66796875 C881.47042091 293.70460334 883.9434418 291.41199981 886.625 288.875 C890.47867509 285.26902714 894.38159905 281.80665816 898.5 278.5 C902.47629426 275.30068278 906.26668298 271.97415055 910 268.5 C914.61001639 264.2104224 919.37783236 260.19589103 924.28515625 256.24609375 C927.10673495 253.9116941 929.80590712 251.48009402 932.5 249 C936.94727112 244.90648909 941.54717463 241.07557501 946.25 237.28125 C949.08099578 234.93281032 951.79383598 232.49090098 954.5 230 C958.9698512 225.88621091 963.59044893 222.02912703 968.31640625 218.21484375 C970.94708557 216.04367173 973.47942424 213.79758643 976 211.5 C979.31989486 208.47717579 982.69764112 205.57487839 986.1875 202.75 C990.66214616 199.12736686 995.03387598 195.40517674 999.375 191.625 C1007.96288859 184.14989292 1016.60311438 176.74608072 1025.4375 169.5625 C1030.95835611 165.06671513 1036.36884848 160.44979007 1041.75390625 155.79296875 C1043.66051038 154.14447591 1045.57857056 152.52516079 1047.52734375 150.92578125 C1051.87159698 147.32579487 1054.50951609 144.08473798 1057 139 C1062.01098105 146.51647157 1061.72961677 155.29019986 1061 164 C1058.48350479 174.79519254 1051.48253327 180.81488175 1043.125 187.48046875 C1039.67641993 190.23558435 1036.33944665 193.11433941 1033 196 C1028.8981412 199.53660062 1024.77195885 203.02865146 1020.5625 206.4375 C1015.46058244 210.57764224 1010.50845082 214.87545383 1005.55810547 219.1940918 C1001.81982653 222.44731974 998.04073621 225.63253025 994.1875 228.75 C989.83061747 232.27669369 985.67324096 235.97502089 981.53125 239.75 C978.02200514 242.86932876 974.36837877 245.79749133 970.71875 248.75 C967.22091849 251.64475711 963.88214596 254.69589539 960.52734375 257.75390625 C957.93037607 260.06187598 955.26595987 262.25555863 952.5625 264.4375 C947.788597 268.29825137 943.26611572 272.37437075 938.75 276.53125 C935.18815771 279.72881296 931.47434167 282.71388343 927.75 285.71875 C923.96094593 288.86194258 920.36730648 292.20158595 916.74609375 295.53515625 C914.08124834 297.92707297 911.35168175 300.19254884 908.5625 302.4375 C904.56765763 305.65951369 900.75538336 309.00746326 897 312.5 C881.6653826 326.70355692 866.45910996 340.07546657 844.421875 339.31640625 C830.17003682 337.99859929 822.05461032 332.11903589 811.828125 322.578125 C809.08849542 320.08067262 806.27073278 317.75085077 803.375 315.4375 C798.99098026 311.90159788 795.02510157 308.13290849 791.09765625 304.1015625 C789.21296935 302.21336594 787.28382904 300.4738718 785.25 298.75 C776.50011011 291.22754958 768.4442925 282.80354761 761 274 C759.73349609 272.56720703 759.73349609 272.56720703 758.44140625 271.10546875 C741.16294805 251.48302226 726.3216746 229.72669742 711.94921875 207.92578125 C707.71111418 201.5643778 703.34257602 195.29034909 699 189 C696.08165783 190.31483573 694.05079071 191.71633276 691.828125 194.01171875 C690.9611499 194.89609619 690.9611499 194.89609619 690.07666016 195.79833984 C689.17246338 196.73347412 689.17246338 196.73347412 688.25 197.6875 C683.89827211 202.12004409 679.53250547 206.41289962 674.7890625 210.4296875 C672.7668372 212.20465381 670.88785373 214.08299023 669 216 C665.8501997 219.19261312 662.58780511 222.17161279 659.1875 225.09375 C656.64488601 227.30945648 654.16889802 229.59098592 651.6875 231.875 C647.25503526 235.91279322 642.72257823 239.77307434 638.0546875 243.53515625 C635.8168842 245.34085175 633.59518101 247.15979312 631.3828125 248.99609375 C552.33686267 314.3749879 458.68968143 344.90721313 337.8125 346.25 C337.1493919 346.25044186 336.4862838 346.25088371 335.80308151 346.25133896 C315.37498608 346.25845981 295.2457567 345.95906183 275 343 C273.79649902 342.82839355 272.59299805 342.65678711 271.35302734 342.47998047 C221.44877904 335.14285606 172.75964177 318.70617547 131 290 C130.03191406 289.33613281 129.06382812 288.67226562 128.06640625 287.98828125 C104.03644722 270.9566461 82.65352506 250.56919193 65 227 C64.3802832 226.18160645 64.3802832 226.18160645 63.74804688 225.34667969 C15.15187416 160.84700512 -1.25247048 79.24605506 0 0 Z " fill="#B1B1B1" transform="translate(970,1577)"/>
<path d="M0 0 C1.00417969 0.84175781 2.00835938 1.68351563 3.04296875 2.55078125 C29.31609378 25.22968626 40.10869155 58.09059597 45.3125 91.4375 C45.47177979 92.45352295 45.63105957 93.4695459 45.79516602 94.51635742 C48.07889043 110.19541523 48.14080154 125.881462 48.09765625 141.6875 C48.09578621 143.72729457 48.09436509 145.76708959 48.09336853 147.80688477 C48.08958941 153.1200489 48.07979966 158.43318476 48.06866455 163.74633789 C48.05835022 169.19026304 48.05384965 174.63419285 48.04882812 180.078125 C48.03817225 190.71876228 48.0211527 201.35937877 48 212 C46.35 212 44.7 212 43 212 C44.98 211.505 44.98 211.505 47 211 C46.93808861 201.73136016 46.86050276 192.46300954 46.76428509 183.19466209 C46.72004369 178.88842097 46.68069423 174.58226452 46.65356445 170.27587891 C46.48873938 142.51191026 46.48873938 142.51191026 43 115 C42.79640869 113.86014648 42.59281738 112.72029297 42.38305664 111.54589844 C41.87628879 108.90778323 41.31045677 106.30028187 40.6875 103.6875 C40.36894043 102.33362183 40.36894043 102.33362183 40.04394531 100.95239258 C32.0758482 68.20975841 14.0712953 39.84431911 -14.7109375 21.49609375 C-21.72025613 17.25763082 -29.29532896 14.0762331 -36.83789062 10.91821289 C-38.68196236 10.13506544 -40.50049202 9.29222075 -42.3125 8.4375 C-47.58737101 6.38119435 -52.9857725 5.18522162 -58.5 3.9375 C-59.5828125 3.68162109 -60.665625 3.42574219 -61.78125 3.16210938 C-76.24382674 -0.15507361 -90.22537571 -1.38363152 -105 -1.3125 C-105.8094809 -1.31034485 -106.61896179 -1.3081897 -107.45297241 -1.30596924 C-139.0523445 -1.17150217 -169.56194263 4.94016655 -198 19 C-198.9266748 19.44835205 -198.9266748 19.44835205 -199.87207031 19.90576172 C-215.373703 27.4525018 -228.75106202 37.93092895 -241 50 C-242.14662109 51.12728516 -242.14662109 51.12728516 -243.31640625 52.27734375 C-263.400329 73.29540244 -274.1581853 100.08340397 -280.97460938 127.8581543 C-285.20295452 145.06126783 -293.11853264 158.33956748 -308.6171875 167.72265625 C-319.87412722 173.7571141 -337.93236106 169.38625208 -350.16894531 168.02807617 C-352.14188123 167.81548777 -354.11489606 167.60363058 -356.08798218 167.3924408 C-361.39847863 166.82173916 -366.70774749 166.24030991 -372.01680088 165.65635467 C-377.59728335 165.04395049 -383.17868871 164.44006183 -388.75994873 163.83479309 C-398.1245012 162.81782578 -407.4882477 161.79367682 -416.8515625 160.76538086 C-427.65235267 159.57932582 -438.45442195 158.40551688 -449.25723577 157.23804873 C-459.68690359 156.1105501 -470.11552056 154.97359197 -480.54372406 153.83263588 C-484.96570857 153.34903612 -489.38804376 152.86885122 -493.81070709 152.39150047 C-499.02209406 151.82864464 -504.23251043 151.25751006 -509.44231033 150.6801548 C-511.34623389 150.47049268 -513.25046807 150.26362805 -515.15503311 150.05987549 C-532.91914787 148.15619621 -548.6852826 145.9807362 -562 133 C-569.58218465 123.0308313 -570.66262154 113.25849844 -570 101 C-569.51893008 97.60762761 -568.87293138 94.31246283 -568 91 C-566.70502904 92.94245644 -565.43251346 94.90015107 -564.1875 96.875 C-557.39844361 106.57365199 -546.79288542 113.23779332 -535.17585754 115.56599426 C-531.99617621 115.99757943 -528.81886137 116.33847866 -525.625 116.6484375 C-523.7451239 116.84935753 -523.7451239 116.84935753 -521.82727051 117.05433655 C-519.04166435 117.35197863 -516.25530486 117.64038401 -513.46801758 117.92184448 C-508.88539933 118.38468817 -504.30493636 118.86687848 -499.72460938 119.35180664 C-494.46815591 119.90735094 -489.21152626 120.46104222 -483.95422363 121.00849915 C-468.04062608 122.66713527 -452.13399016 124.387778 -436.228302 126.12023926 C-431.83969764 126.5982091 -427.45099162 127.07524029 -423.06225586 127.55200195 C-421.97060576 127.67059543 -421.97060576 127.67059543 -420.85690212 127.79158473 C-417.16731795 128.19238611 -413.47772562 128.59311231 -409.78813171 128.99382401 C-408.30943779 129.15442908 -406.83074414 129.31503673 -405.35205078 129.47564697 C-404.62088075 129.55505941 -403.88971071 129.63447184 -403.13638401 129.71629071 C-398.71759937 130.19630645 -394.29890389 130.67713429 -389.88026476 131.1584875 C-382.77333062 131.93265021 -375.6661048 132.70402337 -368.55830812 133.4702298 C-365.25515835 133.82638383 -361.95223178 134.18434495 -358.64958191 134.54512215 C-333.32755169 139.13121094 -333.32755169 139.13121094 -309 135 C-308.3296875 134.65839844 -307.659375 134.31679687 -306.96875 133.96484375 C-295.21596462 127.2973982 -287.74970198 116.44450987 -284.01611328 103.62060547 C-282.99398769 99.71373518 -282.01441075 95.79944042 -281.0625 91.875 C-271.46706971 52.3316927 -248.7223642 17.71106756 -214.00732422 -4.26123047 C-206.64267847 -8.73813596 -198.96151222 -12.60271037 -191.1875 -16.3125 C-190.53080322 -16.62606445 -189.87410645 -16.93962891 -189.19750977 -17.26269531 C-132.47466663 -43.59302091 -49.20042879 -41.5454823 0 0 Z " fill="#BABABA" transform="translate(1576,903)"/>
<path d="M0 0 C0 37.62 0 75.24 0 114 C-0.33 114 -0.66 114 -1 114 C-1 86.94 -1 59.88 -1 32 C-61.05211627 32.96237366 -120.62665872 36.87667625 -178.625 53.5625 C-180.15640625 54.00227173 -180.15640625 54.00227173 -181.71875 54.45092773 C-187.00233557 56.00350655 -191.97527378 57.75606464 -197 60 C-198.82802548 60.66850123 -200.65620792 61.33671398 -202.48999023 61.98925781 C-249.53230056 78.85537384 -289.34055249 112.6422299 -311.28173828 157.62792969 C-321.18717992 178.81599783 -326.20227005 201.87209912 -329 225 C-329.33 225 -329.66 225 -330 225 C-330.80274594 189.89736107 -326.53031938 155.88655534 -311 124 C-310.69126953 123.35111816 -310.38253906 122.70223633 -310.06445312 122.03369141 C-302.60336855 106.52394213 -292.46665613 92.72367399 -280.43066406 80.46582031 C-279.06585152 79.06746972 -277.73125628 77.63981529 -276.3984375 76.2109375 C-253.4838645 52.18871142 -221.31033638 35.22394031 -190 25 C-188.93894043 24.64977783 -188.93894043 24.64977783 -187.85644531 24.29248047 C-177.13763393 20.80387642 -166.26000925 17.98581958 -155.3125 15.3125 C-154.15016846 15.02705322 -152.98783691 14.74160645 -151.7902832 14.44750977 C-136.63826731 10.82514649 -121.3057862 8.49572652 -105.875 6.4375 C-105.0648645 6.3291684 -104.254729 6.22083679 -103.42004395 6.10922241 C-83.4696019 3.45534306 -63.59535842 1.91065302 -43.5 0.875 C-42.65497925 0.83025543 -41.8099585 0.78551086 -40.93933105 0.7394104 C-27.26164765 0.02699642 -13.7233712 0 0 0 Z " fill="#B5B5B5" transform="translate(1624,1290)"/>
<path d="M0 0 C3.78331409 -0.00220873 7.56634544 -0.02054142 11.34960938 -0.03930664 C22.61648166 -0.0659811 33.81651891 0.05386937 45.04492188 1.05249023 C45.8931955 1.1276033 46.74146912 1.20271637 47.615448 1.28010559 C63.11695378 2.85403475 83.60467154 6.62423989 94.88867188 18.18530273 C102.69257939 28.5498674 103.18008628 38.08901257 103.01367188 50.68530273 C103.00464844 51.98467773 102.995625 53.28405273 102.98632812 54.62280273 C102.96288921 57.81049572 102.93007627 60.99780093 102.88867188 64.18530273 C102.22867188 64.18530273 101.56867187 64.18530273 100.88867188 64.18530273 C100.74171875 63.61682617 100.59476563 63.04834961 100.44335938 62.46264648 C98.19451461 54.72093374 95.45592734 50.36597793 88.50195312 46.11499023 C30.2139592 14.16790873 -68.63918482 33.43026186 -130.92382812 41.49780273 C-139.40403986 42.58672215 -147.80474178 43.56754005 -156.36132812 43.68530273 C-157.47084839 43.71297729 -157.47084839 43.71297729 -158.6027832 43.74121094 C-163.34283992 43.68346812 -165.78810271 42.5335148 -169.11132812 39.18530273 C-170.86937952 35.66919994 -170.64550904 32.02280932 -170.11132812 28.18530273 C-167.20885752 20.98769626 -161.40127923 16.37860347 -155.11132812 12.18530273 C-152.82656209 11.74190788 -150.52189862 11.39913136 -148.21289062 11.10717773 C-147.49553741 11.01525146 -146.7781842 10.9233252 -146.03909302 10.82861328 C-143.60595122 10.52101116 -141.17139676 10.22723951 -138.73632812 9.93530273 C-137.46045837 9.77922546 -137.46045837 9.77922546 -136.15881348 9.61999512 C-120.07270304 7.65841838 -103.95709537 5.95854629 -87.8336792 4.33581543 C-85.22765925 4.07306321 -82.62189411 3.80776862 -80.01641846 3.53967285 C-53.34468775 0.81014379 -26.80129633 -0.00174397 0 0 Z " fill="#B0B0AF" transform="translate(2277.111328125,1921.814697265625)"/>
<path d="M0 0 C0.33 0 0.66 0 1 0 C2.5266777 61.7795574 -13.59060357 122.98905199 -39 179 C-39.66249756 180.46735596 -39.66249756 180.46735596 -40.33837891 181.96435547 C-49.5661049 202.23570533 -60.20252084 221.75544262 -73 240 C-73.79446677 241.15351091 -74.58873657 242.3071575 -75.3828125 243.4609375 C-85.16146077 257.53491682 -96.11477305 270.66257672 -108 283 C-108.53657227 283.55848633 -109.07314453 284.11697266 -109.62597656 284.69238281 C-132.10331256 307.96163904 -132.10331256 307.96163904 -144.6875 308.5 C-148.08176299 308.34486056 -149.9478437 308.02448153 -153.0625 306.5625 C-155.89485286 302.81648493 -156.97274423 299.71524754 -157 295 C-156.07396177 290.4990235 -154.69709792 286.26683608 -153 282 C-152.56429687 280.89269531 -152.12859375 279.78539063 -151.6796875 278.64453125 C-150 276 -150 276 -147.58203125 275.3359375 C-146.21111328 275.35527344 -146.21111328 275.35527344 -144.8125 275.375 C-126.8242693 274.52849503 -111.50090235 254.15542525 -100 242 C-96.82467906 238.45111189 -93.89618957 234.77807428 -91 231 C-89.91596952 229.64170501 -88.82984686 228.28507839 -87.7421875 226.9296875 C-75.21868982 211.22692409 -64.75975768 194.53418524 -55 177 C-54.32735107 175.794646 -54.32735107 175.794646 -53.64111328 174.56494141 C-43.45564364 156.14893741 -34.99630338 136.8344781 -28.04248047 116.97631836 C-27.22338878 114.63778282 -26.38077615 112.31562833 -25.5 110 C-21.50683742 99.38979639 -17.941165 88.84972692 -15.0625 77.875 C-14.80962219 76.914729 -14.80962219 76.914729 -14.55163574 75.93505859 C-8.5467752 53.06288081 -4.14112431 30.23924722 -1.38549805 6.76367188 C-1.06147082 4.44069011 -0.62742761 2.25643691 0 0 Z " fill="#AFAEAD" transform="translate(2471,1928)"/>
<path d="M0 0 C0.33 0 0.66 0 1 0 C1.0501123 0.68811768 1.10022461 1.37623535 1.15185547 2.08520508 C2.20374508 16.4192881 3.38252824 30.71806847 5 45 C4.505 43.515 4.505 43.515 4 42 C3.01 42 2.02 42 1 42 C-0.18928395 37.7688986 -0.12544358 33.66075948 -0.09765625 29.296875 C-0.0962413 28.45908508 -0.09482635 27.62129517 -0.09336853 26.75811768 C-0.08778197 24.08870843 -0.07523194 21.4193838 -0.0625 18.75 C-0.05748326 16.93750121 -0.05292066 15.12500111 -0.04882812 13.3125 C-0.03781694 8.87496752 -0.02056155 4.43749809 0 0 Z " fill="#A7A7A7" transform="translate(970,1577)"/>
<path d="M0 0 C0.99 0.33 1.98 0.66 3 1 C-0.58842971 4.69495081 -4.33171871 8.04758217 -8.3125 11.3125 C-8.86228516 11.76689453 -9.41207031 12.22128906 -9.97851562 12.68945312 C-11.31712216 13.79525852 -12.65829231 14.89795939 -14 16 C-14.66 15.34 -15.32 14.68 -16 14 C-5.34031652 2.83001252 -5.34031652 2.83001252 0 0 Z " fill="#D5D5D5" transform="translate(1136,744)"/>
<path d="M0 0 C0.66 0.33 1.32 0.66 2 1 C-5.26 8.26 -12.52 15.52 -20 23 C-20.66 22.67 -21.32 22.34 -22 22 C-8.38735178 7.03853755 -8.38735178 7.03853755 -1 1 C-0.67 0.67 -0.34 0.34 0 0 Z " fill="#B4B4B4" transform="translate(254,183)"/>
<path d="M0 0 C0.33 0 0.66 0 1 0 C1.66 6.27 2.32 12.54 3 19 C2.67 18.01 2.34 17.02 2 16 C1.01 16 0.02 16 -1 16 C-0.835 14.845 -0.67 13.69 -0.5 12.5 C0.03238311 8.30092197 0.07552446 4.22936959 0 0 Z " fill="#9B9B9B" transform="translate(972,1603)"/>
<path d="M0 0 C-1.39332574 3.36720387 -2.9789286 4.9859524 -6 7 C-6 4 -6 4 -4.125 1.8125 C-2 0 -2 0 0 0 Z " fill="#D2D2D2" transform="translate(1089,1263)"/>
</svg>
