<?xml version="1.0" encoding="UTF-8"?>
<!DOCTYPE svg PUBLIC "-//W3C//DTD SVG 1.1//EN" "http://www.w3.org/Graphics/SVG/1.1/DTD/svg11.dtd">
<svg xmlns="http://www.w3.org/2000/svg" version="1.1" width="1200px" height="1200px" style="shape-rendering:geometricPrecision; text-rendering:geometricPrecision; image-rendering:optimizeQuality; fill-rule:evenodd; clip-rule:evenodd" xmlns:xlink="http://www.w3.org/1999/xlink">
<g><path style="opacity:0.02" fill="#e9e6ca" d="M 604.5,227.5 C 512.069,228.164 419.736,228.831 327.5,229.5C 323.914,231.462 319.914,232.795 315.5,233.5C 319.095,231.784 322.761,229.951 326.5,228C 383.182,227.821 439.849,227.321 496.5,226.5C 532.566,226.399 568.566,226.732 604.5,227.5 Z"/></g>
<g><path style="opacity:0.1" fill="#ece8cd" d="M 872.5,229.5 C 791.027,228.842 709.694,228.175 628.5,227.5C 650.673,227.433 673.007,227.1 695.5,226.5C 753.824,227.314 812.157,227.814 870.5,228C 871.416,228.278 872.082,228.778 872.5,229.5 Z"/></g>
<g><path style="opacity:0.192" fill="#f7f4be" d="M 604.5,227.5 C 612.5,227.5 620.5,227.5 628.5,227.5C 709.694,228.175 791.027,228.842 872.5,229.5C 886.757,233.468 900.424,238.801 913.5,245.5C 911.801,245.66 910.134,245.494 908.5,245C 903.69,242.284 898.69,239.951 893.5,238C 885.272,235.214 876.939,232.547 868.5,230C 688.167,229.5 507.834,229.333 327.5,229.5C 419.736,228.831 512.069,228.164 604.5,227.5 Z"/></g>
<g><path style="opacity:0.02" fill="#f6f3c5" d="M 315.5,233.5 C 314.517,234.85 313.184,235.85 311.5,236.5C 302.772,239.541 294.105,242.541 285.5,245.5C 294.873,240.149 304.873,236.149 315.5,233.5 Z"/></g>
<g><path style="opacity:1" fill="#f9cd14" d="M 327.5,229.5 C 507.834,229.333 688.167,229.5 868.5,230C 876.939,232.547 885.272,235.214 893.5,238C 898.69,239.951 903.69,242.284 908.5,245C 910.134,245.494 911.801,245.66 913.5,245.5C 915.167,246.5 916.5,247.833 917.5,249.5C 917.5,265.833 917.5,282.167 917.5,298.5C 917.167,298.5 916.833,298.5 916.5,298.5C 916.5,283.5 916.5,268.5 916.5,253.5C 906.781,256.582 897.114,259.915 887.5,263.5C 886.653,264.845 885.487,265.845 884,266.5C 883.487,269.027 882.32,271.193 880.5,273C 881.414,274.406 882.08,275.906 882.5,277.5C 881.85,277.196 881.183,276.863 880.5,276.5C 879.5,298.156 879.167,319.823 879.5,341.5C 909.852,340.841 939.852,341.508 969.5,343.5C 910.167,343.5 850.833,343.5 791.5,343.5C 796.833,342.833 802.167,342.167 807.5,341.5C 826.167,341.5 844.833,341.5 863.5,341.5C 863.5,338.833 863.5,336.167 863.5,333.5C 860.833,333.5 858.167,333.5 855.5,333.5C 855.5,330.833 855.5,328.167 855.5,325.5C 850.167,325.5 844.833,325.5 839.5,325.5C 839.5,322.833 839.5,320.167 839.5,317.5C 836.833,317.5 834.167,317.5 831.5,317.5C 831.5,314.833 831.5,312.167 831.5,309.5C 828.833,309.5 826.167,309.5 823.5,309.5C 823.5,306.833 823.5,304.167 823.5,301.5C 820.833,301.5 818.167,301.5 815.5,301.5C 815.5,298.833 815.5,296.167 815.5,293.5C 810.167,293.5 804.833,293.5 799.5,293.5C 799.5,290.833 799.5,288.167 799.5,285.5C 794.167,285.5 788.833,285.5 783.5,285.5C 783.5,282.833 783.5,280.167 783.5,277.5C 780.833,277.5 778.167,277.5 775.5,277.5C 775.5,276.5 775.5,275.5 775.5,274.5C 774.127,274.657 772.793,274.49 771.5,274C 770.695,272.028 769.361,270.528 767.5,269.5C 766.914,269.709 766.414,270.043 766,270.5C 765.187,268.564 764.687,266.564 764.5,264.5C 763.07,264.579 761.736,264.246 760.5,263.5C 759.377,264.544 758.044,265.21 756.5,265.5C 752.226,264.912 747.892,264.912 743.5,265.5C 743.33,264.178 743.663,263.011 744.5,262C 738.843,261.501 733.176,261.334 727.5,261.5C 727.5,258.833 727.5,256.167 727.5,253.5C 719.5,253.5 711.5,253.5 703.5,253.5C 703.5,250.833 703.5,248.167 703.5,245.5C 690.167,245.5 676.833,245.5 663.5,245.5C 663.5,242.833 663.5,240.167 663.5,237.5C 618.167,237.5 572.833,237.5 527.5,237.5C 527.5,240.167 527.5,242.833 527.5,245.5C 514.167,245.5 500.833,245.5 487.5,245.5C 487.5,248.167 487.5,250.833 487.5,253.5C 479.5,253.5 471.5,253.5 463.5,253.5C 463.5,256.167 463.5,258.833 463.5,261.5C 460.482,261.335 457.482,261.502 454.5,262C 455.76,263.814 455.76,265.647 454.5,267.5C 452.941,266.553 451.274,265.887 449.5,265.5C 444.197,266.236 438.863,266.736 433.5,267C 432.692,268.706 431.359,269.539 429.5,269.5C 427.4,273.607 425.567,277.94 424,282.5C 423.506,280.866 423.34,279.199 423.5,277.5C 418.167,277.5 412.833,277.5 407.5,277.5C 407.5,280.167 407.5,282.833 407.5,285.5C 404.833,285.5 402.167,285.5 399.5,285.5C 399.5,288.167 399.5,290.833 399.5,293.5C 394.167,293.5 388.833,293.5 383.5,293.5C 383.5,296.167 383.5,298.833 383.5,301.5C 378.167,301.5 372.833,301.5 367.5,301.5C 367.5,304.167 367.5,306.833 367.5,309.5C 364.833,309.5 362.167,309.5 359.5,309.5C 359.5,312.167 359.5,314.833 359.5,317.5C 356.833,317.5 354.167,317.5 351.5,317.5C 351.5,320.167 351.5,322.833 351.5,325.5C 348.833,325.5 346.167,325.5 343.5,325.5C 343.5,328.167 343.5,330.833 343.5,333.5C 338.167,333.5 332.833,333.5 327.5,333.5C 327.5,336.167 327.5,338.833 327.5,341.5C 343.5,341.5 359.5,341.5 375.5,341.5C 375.5,338.833 375.5,336.167 375.5,333.5C 380.833,333.5 386.167,333.5 391.5,333.5C 391.5,330.833 391.5,328.167 391.5,325.5C 394.167,325.5 396.833,325.5 399.5,325.5C 399.5,322.833 399.5,320.167 399.5,317.5C 404.833,317.5 410.167,317.5 415.5,317.5C 415.5,315.833 415.5,314.167 415.5,312.5C 418.167,312.5 420.833,312.5 423.5,312.5C 423.5,311.5 423.5,310.5 423.5,309.5C 426.167,309.5 428.833,309.5 431.5,309.5C 431.338,307.473 431.505,305.473 432,303.5C 433.804,305.981 435.304,305.981 436.5,303.5C 438.925,304.949 441.591,305.615 444.5,305.5C 448.46,305.34 452.126,304.34 455.5,302.5C 455.439,305.05 454.106,306.55 451.5,307C 447.486,306.501 443.486,306.667 439.5,307.5C 450.085,308.818 450.085,309.485 439.5,309.5C 438.323,312.038 436.656,314.371 434.5,316.5C 430.893,317.489 427.226,317.823 423.5,317.5C 422.323,320.038 420.656,322.371 418.5,324.5C 414.893,325.489 411.226,325.823 407.5,325.5C 405.833,329.167 403.167,331.833 399.5,333.5C 397.888,336.131 396.221,338.798 394.5,341.5C 390.818,341.335 387.152,341.501 383.5,342C 389.016,342.173 394.349,342.673 399.5,343.5C 342.5,343.5 285.5,343.5 228.5,343.5C 258.482,341.508 288.815,340.841 319.5,341.5C 319.833,319.49 319.5,297.49 318.5,275.5C 317.482,276.193 316.482,276.859 315.5,277.5C 315.9,275.623 316.9,274.123 318.5,273C 316.53,269.559 314.197,266.392 311.5,263.5C 302.029,259.978 292.529,256.644 283,253.5C 282.5,268.496 282.333,283.496 282.5,298.5C 282.5,299.167 282.167,299.5 281.5,299.5C 281.5,282.833 281.5,266.167 281.5,249.5C 282.5,247.833 283.833,246.5 285.5,245.5C 294.105,242.541 302.772,239.541 311.5,236.5C 313.184,235.85 314.517,234.85 315.5,233.5C 319.914,232.795 323.914,231.462 327.5,229.5 Z"/></g>
<g><path style="opacity:1" fill="#f6cf1a" d="M 807.5,341.5 C 804.833,341.5 802.167,341.5 799.5,341.5C 799.5,338.833 799.5,336.167 799.5,333.5C 799.5,330.833 799.5,328.167 799.5,325.5C 796.833,325.5 794.167,325.5 791.5,325.5C 791.719,324.325 791.386,323.325 790.5,322.5C 788.035,321.868 786.369,320.368 785.5,318C 782.183,317.502 778.85,317.335 775.5,317.5C 775.5,314.833 775.5,312.167 775.5,309.5C 768.654,309.875 761.987,309.042 755.5,307C 757.058,306.79 758.391,306.29 759.5,305.5C 761.579,303.127 764.246,301.794 767.5,301.5C 768.274,298.619 769.607,295.952 771.5,293.5C 774.502,274.044 766.168,265.544 746.5,268C 736.038,273.333 732.371,281.833 735.5,293.5C 734.504,293.586 733.671,293.252 733,292.5C 732.667,288.167 732.333,283.833 732,279.5C 731.667,284.167 731.333,288.833 731,293.5C 729.577,288.379 728.577,288.379 728,293.5C 727.506,291.866 727.34,290.199 727.5,288.5C 724.833,288.5 722.167,288.5 719.5,288.5C 719.5,287.5 719.5,286.5 719.5,285.5C 714.167,285.5 708.833,285.5 703.5,285.5C 703.5,282.833 703.5,280.167 703.5,277.5C 692.833,277.5 682.167,277.5 671.5,277.5C 671.5,275.833 671.5,274.167 671.5,272.5C 666.167,272.5 660.833,272.5 655.5,272.5C 655.5,271.5 655.5,270.5 655.5,269.5C 615.5,269.5 575.5,269.5 535.5,269.5C 535.5,270.5 535.5,271.5 535.5,272.5C 532.833,272.5 530.167,272.5 527.5,272.5C 527.5,271.5 527.5,270.5 527.5,269.5C 524.833,269.5 522.167,269.5 519.5,269.5C 519.5,272.167 519.5,274.833 519.5,277.5C 514.167,277.5 508.833,277.5 503.5,277.5C 503.5,278.5 503.5,279.5 503.5,280.5C 500.833,280.5 498.167,280.5 495.5,280.5C 495.5,279.5 495.5,278.5 495.5,277.5C 492.833,277.5 490.167,277.5 487.5,277.5C 487.5,280.167 487.5,282.833 487.5,285.5C 481.5,285.5 475.5,285.5 469.5,285.5C 469.5,286.833 469.5,288.167 469.5,289.5C 467.115,290.292 465.115,291.626 463.5,293.5C 466.052,282.161 462.385,273.661 452.5,268C 436.678,264.318 427.678,270.485 425.5,286.5C 426.432,294.052 430.099,299.719 436.5,303.5C 435.304,305.981 433.804,305.981 432,303.5C 431.505,305.473 431.338,307.473 431.5,309.5C 428.833,309.5 426.167,309.5 423.5,309.5C 423.5,310.5 423.5,311.5 423.5,312.5C 420.833,312.5 418.167,312.5 415.5,312.5C 415.5,314.167 415.5,315.833 415.5,317.5C 410.167,317.5 404.833,317.5 399.5,317.5C 399.5,320.167 399.5,322.833 399.5,325.5C 396.833,325.5 394.167,325.5 391.5,325.5C 391.5,328.167 391.5,330.833 391.5,333.5C 386.167,333.5 380.833,333.5 375.5,333.5C 375.5,336.167 375.5,338.833 375.5,341.5C 359.5,341.5 343.5,341.5 327.5,341.5C 327.5,338.833 327.5,336.167 327.5,333.5C 332.833,333.5 338.167,333.5 343.5,333.5C 343.5,330.833 343.5,328.167 343.5,325.5C 346.167,325.5 348.833,325.5 351.5,325.5C 351.5,322.833 351.5,320.167 351.5,317.5C 354.167,317.5 356.833,317.5 359.5,317.5C 359.5,314.833 359.5,312.167 359.5,309.5C 362.167,309.5 364.833,309.5 367.5,309.5C 367.5,306.833 367.5,304.167 367.5,301.5C 372.833,301.5 378.167,301.5 383.5,301.5C 383.5,298.833 383.5,296.167 383.5,293.5C 388.833,293.5 394.167,293.5 399.5,293.5C 399.5,290.833 399.5,288.167 399.5,285.5C 402.167,285.5 404.833,285.5 407.5,285.5C 407.5,282.833 407.5,280.167 407.5,277.5C 412.833,277.5 418.167,277.5 423.5,277.5C 423.34,279.199 423.506,280.866 424,282.5C 425.567,277.94 427.4,273.607 429.5,269.5C 431.359,269.539 432.692,268.706 433.5,267C 438.863,266.736 444.197,266.236 449.5,265.5C 451.274,265.887 452.941,266.553 454.5,267.5C 455.76,265.647 455.76,263.814 454.5,262C 457.482,261.502 460.482,261.335 463.5,261.5C 463.5,258.833 463.5,256.167 463.5,253.5C 471.5,253.5 479.5,253.5 487.5,253.5C 487.5,250.833 487.5,248.167 487.5,245.5C 500.833,245.5 514.167,245.5 527.5,245.5C 527.5,242.833 527.5,240.167 527.5,237.5C 572.833,237.5 618.167,237.5 663.5,237.5C 663.5,240.167 663.5,242.833 663.5,245.5C 676.833,245.5 690.167,245.5 703.5,245.5C 703.5,248.167 703.5,250.833 703.5,253.5C 711.5,253.5 719.5,253.5 727.5,253.5C 727.5,256.167 727.5,258.833 727.5,261.5C 733.176,261.334 738.843,261.501 744.5,262C 743.663,263.011 743.33,264.178 743.5,265.5C 747.892,264.912 752.226,264.912 756.5,265.5C 758.044,265.21 759.377,264.544 760.5,263.5C 761.736,264.246 763.07,264.579 764.5,264.5C 764.687,266.564 765.187,268.564 766,270.5C 766.414,270.043 766.914,269.709 767.5,269.5C 769.361,270.528 770.695,272.028 771.5,274C 772.793,274.49 774.127,274.657 775.5,274.5C 775.5,275.5 775.5,276.5 775.5,277.5C 778.167,277.5 780.833,277.5 783.5,277.5C 783.5,280.167 783.5,282.833 783.5,285.5C 788.833,285.5 794.167,285.5 799.5,285.5C 799.5,288.167 799.5,290.833 799.5,293.5C 804.833,293.5 810.167,293.5 815.5,293.5C 815.5,296.167 815.5,298.833 815.5,301.5C 818.167,301.5 820.833,301.5 823.5,301.5C 823.5,304.167 823.5,306.833 823.5,309.5C 826.167,309.5 828.833,309.5 831.5,309.5C 831.5,312.167 831.5,314.833 831.5,317.5C 834.167,317.5 836.833,317.5 839.5,317.5C 839.5,320.167 839.5,322.833 839.5,325.5C 844.833,325.5 850.167,325.5 855.5,325.5C 855.5,328.167 855.5,330.833 855.5,333.5C 858.167,333.5 860.833,333.5 863.5,333.5C 863.5,336.167 863.5,338.833 863.5,341.5C 844.833,341.5 826.167,341.5 807.5,341.5 Z"/></g>
<g><path style="opacity:1" fill="#f7b403" d="M 315.5,277.5 C 304.304,284.261 293.304,291.261 282.5,298.5C 282.333,283.496 282.5,268.496 283,253.5C 292.529,256.644 302.029,259.978 311.5,263.5C 314.197,266.392 316.53,269.559 318.5,273C 316.9,274.123 315.9,275.623 315.5,277.5 Z"/></g>
<g><path style="opacity:1" fill="#f7b403" d="M 916.5,298.5 C 904.811,291.993 893.477,284.993 882.5,277.5C 882.08,275.906 881.414,274.406 880.5,273C 882.32,271.193 883.487,269.027 884,266.5C 885.487,265.845 886.653,264.845 887.5,263.5C 897.114,259.915 906.781,256.582 916.5,253.5C 916.5,268.5 916.5,283.5 916.5,298.5 Z"/></g>
<g><path style="opacity:0.314" fill="#fceca0" d="M 917.5,249.5 C 919.109,250.665 919.443,251.999 918.5,253.5C 918.5,269.5 918.5,285.5 918.5,301.5C 917.596,300.791 917.263,299.791 917.5,298.5C 917.5,282.167 917.5,265.833 917.5,249.5 Z"/></g>
<g><path style="opacity:1" fill="#bca627" d="M 463.5,293.5 C 461.554,294.035 460.554,295.368 460.5,297.5C 458.605,298.973 456.939,300.64 455.5,302.5C 452.126,304.34 448.46,305.34 444.5,305.5C 441.591,305.615 438.925,304.949 436.5,303.5C 430.099,299.719 426.432,294.052 425.5,286.5C 427.678,270.485 436.678,264.318 452.5,268C 462.385,273.661 466.052,282.161 463.5,293.5 Z"/></g>
<g><path style="opacity:1" fill="#f6cb1c" d="M 735.5,293.5 C 740.62,302.999 748.62,306.999 759.5,305.5C 758.391,306.29 757.058,306.79 755.5,307C 761.987,309.042 768.654,309.875 775.5,309.5C 775.5,312.167 775.5,314.833 775.5,317.5C 778.85,317.335 782.183,317.502 785.5,318C 786.369,320.368 788.035,321.868 790.5,322.5C 791.386,323.325 791.719,324.325 791.5,325.5C 794.167,325.5 796.833,325.5 799.5,325.5C 799.5,328.167 799.5,330.833 799.5,333.5C 795.774,333.823 792.107,333.489 788.5,332.5C 786.344,330.371 784.677,328.038 783.5,325.5C 779.774,325.823 776.107,325.489 772.5,324.5C 770.344,322.371 768.677,320.038 767.5,317.5C 764.833,317.5 762.167,317.5 759.5,317.5C 759.719,316.325 759.386,315.325 758.5,314.5C 756.035,313.868 754.369,312.368 753.5,310C 752.391,309.362 751.225,308.862 750,308.5C 748.535,309.33 747.035,309.496 745.5,309C 746.308,308.692 746.975,308.192 747.5,307.5C 742.335,307.511 738.835,305.177 737,300.5C 728.807,303.318 722.973,300.984 719.5,293.5C 713.132,293.83 706.798,293.496 700.5,292.5C 699.036,288.893 697.036,288.226 694.5,290.5C 692.035,289.868 690.369,288.368 689.5,286C 683.509,285.501 677.509,285.334 671.5,285.5C 671.5,284.5 671.5,283.5 671.5,282.5C 666.167,281.833 660.833,281.167 655.5,280.5C 655.5,279.5 655.5,278.5 655.5,277.5C 615.5,277.5 575.5,277.5 535.5,277.5C 535.5,279.167 535.5,280.833 535.5,282.5C 530.167,282.5 524.833,282.5 519.5,282.5C 519.5,283.5 519.5,284.5 519.5,285.5C 514.167,285.5 508.833,285.5 503.5,285.5C 503.5,286.5 503.5,287.5 503.5,288.5C 498.167,289.167 492.833,289.833 487.5,290.5C 487.5,291.5 487.5,292.5 487.5,293.5C 484.833,293.5 482.167,293.5 479.5,293.5C 479.5,294.5 479.5,295.5 479.5,296.5C 474.167,297.167 468.833,297.833 463.5,298.5C 463.649,299.552 463.483,300.552 463,301.5C 461.887,300.289 460.72,300.289 459.5,301.5C 459.167,301.333 458.833,301.167 458.5,301C 459.823,300.184 460.489,299.017 460.5,297.5C 460.554,295.368 461.554,294.035 463.5,293.5C 465.115,291.626 467.115,290.292 469.5,289.5C 469.5,288.167 469.5,286.833 469.5,285.5C 475.5,285.5 481.5,285.5 487.5,285.5C 487.5,282.833 487.5,280.167 487.5,277.5C 490.167,277.5 492.833,277.5 495.5,277.5C 495.5,278.5 495.5,279.5 495.5,280.5C 498.167,280.5 500.833,280.5 503.5,280.5C 503.5,279.5 503.5,278.5 503.5,277.5C 508.833,277.5 514.167,277.5 519.5,277.5C 519.5,274.833 519.5,272.167 519.5,269.5C 522.167,269.5 524.833,269.5 527.5,269.5C 527.5,270.5 527.5,271.5 527.5,272.5C 530.167,272.5 532.833,272.5 535.5,272.5C 535.5,271.5 535.5,270.5 535.5,269.5C 575.5,269.5 615.5,269.5 655.5,269.5C 655.5,270.5 655.5,271.5 655.5,272.5C 660.833,272.5 666.167,272.5 671.5,272.5C 671.5,274.167 671.5,275.833 671.5,277.5C 682.167,277.5 692.833,277.5 703.5,277.5C 703.5,280.167 703.5,282.833 703.5,285.5C 708.833,285.5 714.167,285.5 719.5,285.5C 719.5,286.5 719.5,287.5 719.5,288.5C 722.167,288.5 724.833,288.5 727.5,288.5C 727.34,290.199 727.506,291.866 728,293.5C 728.577,288.379 729.577,288.379 731,293.5C 731.333,288.833 731.667,284.167 732,279.5C 732.333,283.833 732.667,288.167 733,292.5C 733.671,293.252 734.504,293.586 735.5,293.5 Z"/></g>
<g><path style="opacity:1" fill="#bca627" d="M 759.5,305.5 C 748.62,306.999 740.62,302.999 735.5,293.5C 732.371,281.833 736.038,273.333 746.5,268C 766.168,265.544 774.502,274.044 771.5,293.5C 769.607,295.952 768.274,298.619 767.5,301.5C 764.246,301.794 761.579,303.127 759.5,305.5 Z"/></g>
<g><path style="opacity:0.442" fill="#fce995" d="M 281.5,249.5 C 281.5,266.167 281.5,282.833 281.5,299.5C 281.672,300.492 281.338,301.158 280.5,301.5C 280.5,285.5 280.5,269.5 280.5,253.5C 279.046,251.737 279.38,250.403 281.5,249.5 Z"/></g>
<g><path style="opacity:1" fill="#f6e52e" d="M 228.5,343.5 C 227.539,341.735 227.205,339.735 227.5,337.5C 227.5,336.833 227.833,336.5 228.5,336.5C 235.039,332.069 241.373,327.402 247.5,322.5C 258.247,315.083 269.247,308.083 280.5,301.5C 281.338,301.158 281.672,300.492 281.5,299.5C 282.167,299.5 282.5,299.167 282.5,298.5C 293.304,291.261 304.304,284.261 315.5,277.5C 316.482,276.859 317.482,276.193 318.5,275.5C 319.5,297.49 319.833,319.49 319.5,341.5C 288.815,340.841 258.482,341.508 228.5,343.5 Z"/></g>
<g><path style="opacity:1" fill="#f4bd16" d="M 799.5,341.5 C 802.167,341.5 804.833,341.5 807.5,341.5C 802.167,342.167 796.833,342.833 791.5,343.5C 660.833,343.5 530.167,343.5 399.5,343.5C 394.349,342.673 389.016,342.173 383.5,342C 387.152,341.501 390.818,341.335 394.5,341.5C 402.052,343.335 407.718,341.002 411.5,334.5C 415.553,332.621 419.22,330.121 422.5,327C 425.543,326.202 428.376,325.035 431,323.5C 431.333,323.833 431.667,324.167 432,324.5C 435.889,319.305 441.056,316.971 447.5,317.5C 447.5,316.167 447.5,314.833 447.5,313.5C 450.167,313.5 452.833,313.5 455.5,313.5C 455.5,312.167 455.5,310.833 455.5,309.5C 458.167,309.5 460.833,309.5 463.5,309.5C 463.5,308.167 463.5,306.833 463.5,305.5C 466.167,305.5 468.833,305.5 471.5,305.5C 471.5,304.5 471.5,303.5 471.5,302.5C 476.833,302.167 482.167,301.833 487.5,301.5C 487.5,300.167 487.5,298.833 487.5,297.5C 490.167,297.5 492.833,297.5 495.5,297.5C 495.5,296.5 495.5,295.5 495.5,294.5C 503.483,293.834 511.483,293.501 519.5,293.5C 519.5,292.167 519.5,290.833 519.5,289.5C 522.167,289.5 524.833,289.5 527.5,289.5C 527.5,288.5 527.5,287.5 527.5,286.5C 540.815,285.667 554.149,285.334 567.5,285.5C 567.5,284.167 567.5,282.833 567.5,281.5C 586.179,281.167 604.845,281.5 623.5,282.5C 626.167,283.167 628.833,283.833 631.5,284.5C 642.509,285.25 653.509,286.084 664.5,287C 666.759,288.715 668.926,290.548 671,292.5C 671.483,291.552 671.649,290.552 671.5,289.5C 674.167,289.5 676.833,289.5 679.5,289.5C 679.5,290.833 679.5,292.167 679.5,293.5C 685.184,293.743 690.851,294.243 696.5,295C 702.472,300.973 709.806,303.306 718.5,302C 721.423,304.045 724.257,306.212 727,308.5C 727.333,308.167 727.667,307.833 728,307.5C 730.96,309.658 734.126,310.325 737.5,309.5C 740.357,311.768 743.024,314.268 745.5,317C 748.282,317.945 750.949,318.112 753.5,317.5C 756.357,319.768 759.024,322.268 761.5,325C 764.937,326.095 768.27,326.595 771.5,326.5C 774.38,331.546 778.714,334.379 784.5,335C 787.02,336.763 789.353,338.763 791.5,341C 794.146,341.497 796.813,341.664 799.5,341.5 Z"/></g>
<g><path style="opacity:1" fill="#f6e52e" d="M 882.5,277.5 C 893.477,284.993 904.811,291.993 916.5,298.5C 916.833,298.5 917.167,298.5 917.5,298.5C 917.263,299.791 917.596,300.791 918.5,301.5C 933.999,311.055 948.999,321.389 963.5,332.5C 965.411,333.477 967.411,334.143 969.5,334.5C 970.906,334.973 971.573,335.973 971.5,337.5C 971.795,339.735 971.461,341.735 970.5,343.5C 970.167,343.5 969.833,343.5 969.5,343.5C 939.852,341.508 909.852,340.841 879.5,341.5C 879.167,319.823 879.5,298.156 880.5,276.5C 881.183,276.863 881.85,277.196 882.5,277.5 Z"/></g>
<g><path style="opacity:0.18" fill="#e3e1d2" d="M 280.5,253.5 C 280.5,269.5 280.5,285.5 280.5,301.5C 269.247,308.083 258.247,315.083 247.5,322.5C 247.414,321.504 247.748,320.671 248.5,320C 258.85,313.986 268.35,306.82 277,298.5C 278.336,283.371 279.503,268.371 280.5,253.5 Z"/></g>
<g><path style="opacity:1" fill="#f6c41a" d="M 799.5,333.5 C 799.5,336.167 799.5,338.833 799.5,341.5C 796.813,341.664 794.146,341.497 791.5,341C 789.353,338.763 787.02,336.763 784.5,335C 778.714,334.379 774.38,331.546 771.5,326.5C 768.27,326.595 764.937,326.095 761.5,325C 759.024,322.268 756.357,319.768 753.5,317.5C 750.949,318.112 748.282,317.945 745.5,317C 743.024,314.268 740.357,311.768 737.5,309.5C 734.126,310.325 730.96,309.658 728,307.5C 727.667,307.833 727.333,308.167 727,308.5C 724.257,306.212 721.423,304.045 718.5,302C 709.806,303.306 702.472,300.973 696.5,295C 690.851,294.243 685.184,293.743 679.5,293.5C 679.5,292.167 679.5,290.833 679.5,289.5C 676.833,289.5 674.167,289.5 671.5,289.5C 671.649,290.552 671.483,291.552 671,292.5C 668.926,290.548 666.759,288.715 664.5,287C 653.509,286.084 642.509,285.25 631.5,284.5C 628.833,283.833 626.167,283.167 623.5,282.5C 604.845,281.5 586.179,281.167 567.5,281.5C 567.5,282.833 567.5,284.167 567.5,285.5C 554.149,285.334 540.815,285.667 527.5,286.5C 527.5,287.5 527.5,288.5 527.5,289.5C 524.833,289.5 522.167,289.5 519.5,289.5C 519.5,290.833 519.5,292.167 519.5,293.5C 511.483,293.501 503.483,293.834 495.5,294.5C 495.5,295.5 495.5,296.5 495.5,297.5C 492.833,297.5 490.167,297.5 487.5,297.5C 487.5,298.833 487.5,300.167 487.5,301.5C 482.167,301.833 476.833,302.167 471.5,302.5C 471.5,303.5 471.5,304.5 471.5,305.5C 468.833,305.5 466.167,305.5 463.5,305.5C 463.5,306.833 463.5,308.167 463.5,309.5C 460.833,309.5 458.167,309.5 455.5,309.5C 455.5,310.833 455.5,312.167 455.5,313.5C 452.833,313.5 450.167,313.5 447.5,313.5C 447.5,314.833 447.5,316.167 447.5,317.5C 441.056,316.971 435.889,319.305 432,324.5C 431.667,324.167 431.333,323.833 431,323.5C 428.376,325.035 425.543,326.202 422.5,327C 419.22,330.121 415.553,332.621 411.5,334.5C 407.718,341.002 402.052,343.335 394.5,341.5C 396.221,338.798 397.888,336.131 399.5,333.5C 403.167,331.833 405.833,329.167 407.5,325.5C 411.226,325.823 414.893,325.489 418.5,324.5C 420.656,322.371 422.323,320.038 423.5,317.5C 427.226,317.823 430.893,317.489 434.5,316.5C 436.656,314.371 438.323,312.038 439.5,309.5C 450.085,309.485 450.085,308.818 439.5,307.5C 443.486,306.667 447.486,306.501 451.5,307C 454.106,306.55 455.439,305.05 455.5,302.5C 456.939,300.64 458.605,298.973 460.5,297.5C 460.489,299.017 459.823,300.184 458.5,301C 458.833,301.167 459.167,301.333 459.5,301.5C 460.72,300.289 461.887,300.289 463,301.5C 463.483,300.552 463.649,299.552 463.5,298.5C 468.833,297.833 474.167,297.167 479.5,296.5C 479.5,295.5 479.5,294.5 479.5,293.5C 482.167,293.5 484.833,293.5 487.5,293.5C 487.5,292.5 487.5,291.5 487.5,290.5C 492.833,289.833 498.167,289.167 503.5,288.5C 503.5,287.5 503.5,286.5 503.5,285.5C 508.833,285.5 514.167,285.5 519.5,285.5C 519.5,284.5 519.5,283.5 519.5,282.5C 524.833,282.5 530.167,282.5 535.5,282.5C 535.5,280.833 535.5,279.167 535.5,277.5C 575.5,277.5 615.5,277.5 655.5,277.5C 655.5,278.5 655.5,279.5 655.5,280.5C 660.833,281.167 666.167,281.833 671.5,282.5C 671.5,283.5 671.5,284.5 671.5,285.5C 677.509,285.334 683.509,285.501 689.5,286C 690.369,288.368 692.035,289.868 694.5,290.5C 697.036,288.226 699.036,288.893 700.5,292.5C 706.798,293.496 713.132,293.83 719.5,293.5C 722.973,300.984 728.807,303.318 737,300.5C 738.835,305.177 742.335,307.511 747.5,307.5C 746.975,308.192 746.308,308.692 745.5,309C 747.035,309.496 748.535,309.33 750,308.5C 751.225,308.862 752.391,309.362 753.5,310C 754.369,312.368 756.035,313.868 758.5,314.5C 759.386,315.325 759.719,316.325 759.5,317.5C 762.167,317.5 764.833,317.5 767.5,317.5C 768.677,320.038 770.344,322.371 772.5,324.5C 776.107,325.489 779.774,325.823 783.5,325.5C 784.677,328.038 786.344,330.371 788.5,332.5C 792.107,333.489 795.774,333.823 799.5,333.5 Z"/></g>
<g><path style="opacity:1" fill="#f4b613" d="M 775.5,341.5 C 764.833,341.5 754.167,341.5 743.5,341.5C 742.323,338.962 740.656,336.629 738.5,334.5C 733.533,333.671 728.533,333.171 723.5,333C 721.029,330.791 718.696,328.458 716.5,326C 712.179,325.501 707.846,325.334 703.5,325.5C 702.323,322.962 700.656,320.629 698.5,318.5C 694.893,317.511 691.226,317.177 687.5,317.5C 687.5,314.833 687.5,312.167 687.5,309.5C 676.833,309.5 666.167,309.5 655.5,309.5C 655.5,306.833 655.5,304.167 655.5,301.5C 615.494,301.167 575.494,301.5 535.5,302.5C 524.913,304.136 524.913,305.136 535.5,305.5C 535.5,306.833 535.5,308.167 535.5,309.5C 524.833,309.5 514.167,309.5 503.5,309.5C 503.5,312.167 503.5,314.833 503.5,317.5C 495.5,317.5 487.5,317.5 479.5,317.5C 479.5,320.167 479.5,322.833 479.5,325.5C 471.5,325.5 463.5,325.5 455.5,325.5C 455.5,326.833 455.5,328.167 455.5,329.5C 452.833,329.5 450.167,329.5 447.5,329.5C 447.5,330.5 447.5,331.5 447.5,332.5C 450.187,332.336 452.854,332.503 455.5,333C 450.136,333.171 444.802,333.671 439.5,334.5C 436.839,336.494 434.506,338.827 432.5,341.5C 427.167,341.5 421.833,341.5 416.5,341.5C 420.145,336.116 425.145,333.45 431.5,333.5C 431.238,332.022 431.571,330.689 432.5,329.5C 434.303,328.863 435.636,327.697 436.5,326C 440.152,325.501 443.818,325.335 447.5,325.5C 447.5,323.5 447.5,321.5 447.5,319.5C 455.432,318.176 463.432,317.509 471.5,317.5C 471.5,314.833 471.5,312.167 471.5,309.5C 476.833,309.5 482.167,309.5 487.5,309.5C 487.5,307.5 487.5,305.5 487.5,303.5C 498.094,301.951 508.76,301.284 519.5,301.5C 519.5,299.5 519.5,297.5 519.5,295.5C 535.432,293.77 551.432,293.104 567.5,293.5C 567.5,292.167 567.5,290.833 567.5,289.5C 586.167,286.833 604.833,286.833 623.5,289.5C 623.5,290.833 623.5,292.167 623.5,293.5C 639.568,293.104 655.568,293.77 671.5,295.5C 671.5,297.5 671.5,299.5 671.5,301.5C 678.841,301.334 686.174,301.5 693.5,302C 694.682,303.678 695.848,303.512 697,301.5C 698.659,302.98 700.492,304.314 702.5,305.5C 703.429,306.689 703.762,308.022 703.5,309.5C 708.179,309.334 712.845,309.501 717.5,310C 718.682,311.678 719.848,311.512 721,309.5C 722.659,310.98 724.492,312.314 726.5,313.5C 727.429,314.689 727.762,316.022 727.5,317.5C 731.182,317.335 734.848,317.501 738.5,318C 739.364,319.697 740.697,320.863 742.5,321.5C 743.429,322.689 743.762,324.022 743.5,325.5C 747.182,325.335 750.848,325.501 754.5,326C 755.364,327.697 756.697,328.863 758.5,329.5C 759.429,330.689 759.762,332.022 759.5,333.5C 763.182,333.335 766.848,333.501 770.5,334C 771.364,335.697 772.697,336.863 774.5,337.5C 775.429,338.689 775.762,340.022 775.5,341.5 Z"/></g>
<g><path style="opacity:1" fill="#f3a10a" d="M 703.5,341.5 C 693.852,343.605 685.852,341.105 679.5,334C 671.507,333.5 663.507,333.334 655.5,333.5C 655.5,332.167 655.5,330.833 655.5,329.5C 650.167,329.5 644.833,329.5 639.5,329.5C 639.5,328.167 639.5,326.833 639.5,325.5C 610.152,325.234 580.819,325.567 551.5,326.5C 551.5,327.5 551.5,328.5 551.5,329.5C 548.833,329.5 546.167,329.5 543.5,329.5C 543.5,330.5 543.5,331.5 543.5,332.5C 535.517,333.166 527.517,333.499 519.5,333.5C 519.5,334.833 519.5,336.167 519.5,337.5C 516.833,337.5 514.167,337.5 511.5,337.5C 511.5,338.5 511.5,339.5 511.5,340.5C 500.668,340.948 490.001,341.615 479.5,342.5C 452.481,342.862 431.481,342.528 416.5,341.5C 421.833,341.5 427.167,341.5 432.5,341.5C 445.5,341.5 458.5,341.5 471.5,341.5C 471.5,338.833 471.5,336.167 471.5,333.5C 476.833,333.5 482.167,333.5 487.5,333.5C 487.5,331.833 487.5,330.167 487.5,328.5C 490.167,328.5 492.833,328.5 495.5,328.5C 495.5,327.5 495.5,326.5 495.5,325.5C 503.5,325.5 511.5,325.5 519.5,325.5C 519.5,322.833 519.5,320.167 519.5,317.5C 548.833,317.5 578.167,317.5 607.5,317.5C 607.5,318.833 607.5,320.167 607.5,321.5C 610.167,321.5 612.833,321.5 615.5,321.5C 615.5,320.167 615.5,318.833 615.5,317.5C 626.167,317.833 636.833,318.167 647.5,318.5C 647.5,319.5 647.5,320.5 647.5,321.5C 650.167,321.5 652.833,321.5 655.5,321.5C 655.5,322.833 655.5,324.167 655.5,325.5C 661.176,325.334 666.843,325.501 672.5,326C 674.373,328.209 676.54,330.042 679,331.5C 681.129,329.258 682.962,329.758 684.5,333C 690.5,333.333 696.5,333.667 702.5,334C 703.435,336.381 703.768,338.881 703.5,341.5 Z"/></g>
<g><path style="opacity:0.149" fill="#f6f3da" d="M 918.5,253.5 C 920.67,263.965 921.003,274.631 919.5,285.5C 919.403,289.616 919.903,293.616 921,297.5C 933.99,308.825 947.824,318.992 962.5,328C 965.288,329.719 967.621,331.885 969.5,334.5C 967.411,334.143 965.411,333.477 963.5,332.5C 948.999,321.389 933.999,311.055 918.5,301.5C 918.5,285.5 918.5,269.5 918.5,253.5 Z"/></g>
<g><path style="opacity:1" fill="#f4ac0f" d="M 775.5,341.5 C 764.857,342.54 748.857,342.873 727.5,342.5C 719.684,341.508 711.684,341.174 703.5,341.5C 703.768,338.881 703.435,336.381 702.5,334C 696.5,333.667 690.5,333.333 684.5,333C 682.962,329.758 681.129,329.258 679,331.5C 676.54,330.042 674.373,328.209 672.5,326C 666.843,325.501 661.176,325.334 655.5,325.5C 655.5,324.167 655.5,322.833 655.5,321.5C 652.833,321.5 650.167,321.5 647.5,321.5C 647.5,320.5 647.5,319.5 647.5,318.5C 636.833,318.167 626.167,317.833 615.5,317.5C 615.5,318.833 615.5,320.167 615.5,321.5C 612.833,321.5 610.167,321.5 607.5,321.5C 607.5,320.167 607.5,318.833 607.5,317.5C 578.167,317.5 548.833,317.5 519.5,317.5C 519.5,320.167 519.5,322.833 519.5,325.5C 511.5,325.5 503.5,325.5 495.5,325.5C 495.5,326.5 495.5,327.5 495.5,328.5C 492.833,328.5 490.167,328.5 487.5,328.5C 487.5,330.167 487.5,331.833 487.5,333.5C 482.167,333.5 476.833,333.5 471.5,333.5C 471.5,336.167 471.5,338.833 471.5,341.5C 458.5,341.5 445.5,341.5 432.5,341.5C 434.506,338.827 436.839,336.494 439.5,334.5C 444.802,333.671 450.136,333.171 455.5,333C 452.854,332.503 450.187,332.336 447.5,332.5C 447.5,331.5 447.5,330.5 447.5,329.5C 450.167,329.5 452.833,329.5 455.5,329.5C 455.5,328.167 455.5,326.833 455.5,325.5C 463.5,325.5 471.5,325.5 479.5,325.5C 479.5,322.833 479.5,320.167 479.5,317.5C 487.5,317.5 495.5,317.5 503.5,317.5C 503.5,314.833 503.5,312.167 503.5,309.5C 514.167,309.5 524.833,309.5 535.5,309.5C 535.5,308.167 535.5,306.833 535.5,305.5C 524.913,305.136 524.913,304.136 535.5,302.5C 575.494,301.5 615.494,301.167 655.5,301.5C 655.5,304.167 655.5,306.833 655.5,309.5C 666.167,309.5 676.833,309.5 687.5,309.5C 687.5,312.167 687.5,314.833 687.5,317.5C 691.226,317.177 694.893,317.511 698.5,318.5C 700.656,320.629 702.323,322.962 703.5,325.5C 707.846,325.334 712.179,325.501 716.5,326C 718.696,328.458 721.029,330.791 723.5,333C 728.533,333.171 733.533,333.671 738.5,334.5C 740.656,336.629 742.323,338.962 743.5,341.5C 754.167,341.5 764.833,341.5 775.5,341.5 Z"/></g>
<g><path style="opacity:0.11" fill="#e3dace" d="M 247.5,322.5 C 241.373,327.402 235.039,332.069 228.5,336.5C 232.562,328.773 238.896,324.107 247.5,322.5 Z"/></g>
<g><path style="opacity:1" fill="#f39606" d="M 703.5,341.5 C 711.684,341.174 719.684,341.508 727.5,342.5C 644.833,342.5 562.167,342.5 479.5,342.5C 490.001,341.615 500.668,340.948 511.5,340.5C 511.5,339.5 511.5,338.5 511.5,337.5C 514.167,337.5 516.833,337.5 519.5,337.5C 519.5,336.167 519.5,334.833 519.5,333.5C 527.517,333.499 535.517,333.166 543.5,332.5C 543.5,331.5 543.5,330.5 543.5,329.5C 546.167,329.5 548.833,329.5 551.5,329.5C 551.5,328.5 551.5,327.5 551.5,326.5C 580.819,325.567 610.152,325.234 639.5,325.5C 639.5,326.833 639.5,328.167 639.5,329.5C 644.833,329.5 650.167,329.5 655.5,329.5C 655.5,330.833 655.5,332.167 655.5,333.5C 663.507,333.334 671.507,333.5 679.5,334C 685.852,341.105 693.852,343.605 703.5,341.5 Z"/></g>
<g><path style="opacity:1" fill="#f8f6c8" d="M 971.5,337.5 C 972.548,346.818 973.214,356.318 973.5,366C 972.965,376.945 972.632,388.111 972.5,399.5C 972.167,399.5 971.833,399.5 971.5,399.5C 971.83,383.991 971.496,368.658 970.5,353.5C 724.334,352.5 478.001,352.167 231.5,352.5C 231.5,352.167 231.5,351.833 231.5,351.5C 476.833,351.5 722.167,351.5 967.5,351.5C 967.5,350.5 967.5,349.5 967.5,348.5C 954.167,348.5 940.833,348.5 927.5,348.5C 927.5,348.167 927.5,347.833 927.5,347.5C 940.837,347.667 954.171,347.5 967.5,347C 751.503,345.605 535.503,345.105 319.5,345.5C 477.999,344.727 694.999,344.06 970.5,343.5C 971.461,341.735 971.795,339.735 971.5,337.5 Z"/></g>
<g><path style="opacity:1" fill="#f3f4ac" d="M 319.5,345.5 C 535.503,345.105 751.503,345.605 967.5,347C 954.171,347.5 940.837,347.667 927.5,347.5C 718.167,346.245 508.833,346.245 299.5,347.5C 276.833,347.333 254.167,347.167 231.5,347C 261.003,346.832 290.336,346.332 319.5,345.5 Z"/></g>
<g><path style="opacity:1" fill="#f9f0b0" d="M 227.5,337.5 C 227.205,339.735 227.539,341.735 228.5,343.5C 285.5,343.5 342.5,343.5 399.5,343.5C 530.167,343.5 660.833,343.5 791.5,343.5C 850.833,343.5 910.167,343.5 969.5,343.5C 969.833,343.5 970.167,343.5 970.5,343.5C 694.999,344.06 477.999,344.727 319.5,345.5C 290.336,346.332 261.003,346.832 231.5,347C 254.167,347.167 276.833,347.333 299.5,347.5C 508.833,346.245 718.167,346.245 927.5,347.5C 927.5,347.833 927.5,348.167 927.5,348.5C 925.031,349.317 922.365,349.817 919.5,350C 690,350.167 460.666,350.667 231.5,351.5C 231.5,351.833 231.5,352.167 231.5,352.5C 230.167,352.5 228.833,352.5 227.5,352.5C 226.954,348.955 226.287,345.455 225.5,342C 226.099,340.378 226.766,338.878 227.5,337.5 Z"/></g>
<g><path style="opacity:1" fill="#f5f7ac" d="M 927.5,348.5 C 940.833,348.5 954.167,348.5 967.5,348.5C 967.5,349.5 967.5,350.5 967.5,351.5C 722.167,351.5 476.833,351.5 231.5,351.5C 460.666,350.667 690,350.167 919.5,350C 922.365,349.817 925.031,349.317 927.5,348.5 Z"/></g>
<g><path style="opacity:1" fill="#f0e698" d="M 227.5,352.5 C 228.833,352.5 230.167,352.5 231.5,352.5C 478.001,352.167 724.334,352.5 970.5,353.5C 953.5,353.5 936.5,353.5 919.5,353.5C 688.833,353.5 458.167,353.5 227.5,353.5C 227.5,394.167 227.5,434.833 227.5,475.5C 227.5,628.167 227.5,780.833 227.5,933.5C 226.5,740.334 226.167,547.001 226.5,353.5C 226.5,352.833 226.833,352.5 227.5,352.5 Z"/></g>
<g><path style="opacity:1" fill="#f3e830" d="M 919.5,353.5 C 689.334,354.5 459.001,354.833 228.5,354.5C 228.5,355.5 228.5,356.5 228.5,357.5C 228.832,397.004 228.499,436.337 227.5,475.5C 227.5,434.833 227.5,394.167 227.5,353.5C 458.167,353.5 688.833,353.5 919.5,353.5 Z"/></g>
<g><path style="opacity:1" fill="#f9e619" d="M 919.5,353.5 C 936.5,353.5 953.5,353.5 970.5,353.5C 970.832,400.336 970.499,447.003 969.5,493.5C 969.83,447.595 969.497,401.761 968.5,356C 845.5,355.833 722.5,355.667 599.5,355.5C 476.165,355.5 353.165,356.167 230.5,357.5C 230.167,357.5 229.833,357.5 229.5,357.5C 229.167,357.5 228.833,357.5 228.5,357.5C 228.5,356.5 228.5,355.5 228.5,354.5C 459.001,354.833 689.334,354.5 919.5,353.5 Z"/></g>
<g><path style="opacity:1" fill="#f7e62e" d="M 765.5,378.5 C 760.575,375.668 755.242,374.834 749.5,376C 748.242,377.741 747.242,379.574 746.5,381.5C 745.513,386.305 745.179,391.305 745.5,396.5C 745.5,398.5 745.5,400.5 745.5,402.5C 744.756,406.119 744.423,409.785 744.5,413.5C 743.596,414.209 743.263,415.209 743.5,416.5C 741.759,422.827 739.759,429.161 737.5,435.5C 736.833,436.167 736.167,436.833 735.5,437.5C 735.536,432.095 735.536,426.762 735.5,421.5C 644.5,421.5 553.5,421.5 462.5,421.5C 462.313,419.436 461.813,417.436 461,415.5C 459.867,413.789 458.367,413.289 456.5,414C 458.032,416.034 459.365,418.201 460.5,420.5C 459.833,421.167 459.167,421.833 458.5,422.5C 459.374,424.747 459.708,427.08 459.5,429.5C 458.833,428.167 458.167,426.833 457.5,425.5C 457.672,424.508 457.338,423.842 456.5,423.5C 453.781,409.65 452.115,395.65 451.5,381.5C 446.042,375.664 439.708,374.331 432.5,377.5C 431.766,378.708 431.433,380.041 431.5,381.5C 429.952,381.821 429.285,382.821 429.5,384.5C 428.603,391.667 428.603,399 429.5,406.5C 430.219,408.764 430.552,411.097 430.5,413.5C 430.5,414.5 430.5,415.5 430.5,416.5C 430.66,418.199 430.494,419.866 430,421.5C 428.895,417.877 427.895,414.21 427,410.5C 426.503,412.81 426.337,415.143 426.5,417.5C 425.5,417.5 424.5,417.5 423.5,417.5C 423.5,418.833 423.5,420.167 423.5,421.5C 359.5,421.5 295.5,421.5 231.5,421.5C 231.829,435.01 231.496,448.344 230.5,461.5C 230.5,426.833 230.5,392.167 230.5,357.5C 476.097,356.334 721.764,356.168 967.5,357C 968.694,438.683 968.694,460.183 967.5,421.5C 903.5,421.5 839.5,421.5 775.5,421.5C 775.167,412.167 774.833,412.167 774.5,421.5C 773.5,421.5 772.5,421.5 771.5,421.5C 771.428,416.596 772.428,411.93 774.5,407.5C 774.392,406.558 774.059,405.725 773.5,405C 775.341,402.743 776.674,400.243 777.5,397.5C 778.833,397.5 780.167,397.5 781.5,397.5C 781.5,392.167 781.5,386.833 781.5,381.5C 777.833,381.167 775.833,379.167 775.5,375.5C 772.167,375.5 768.833,375.5 765.5,375.5C 765.5,376.5 765.5,377.5 765.5,378.5 Z"/></g>
<g><path style="opacity:1" fill="#dcdbda" d="M 765.5,378.5 C 768.4,381.529 769.734,385.196 769.5,389.5C 762.743,387.58 755.743,386.08 748.5,385C 747.027,384.29 746.36,383.124 746.5,381.5C 747.242,379.574 748.242,377.741 749.5,376C 755.242,374.834 760.575,375.668 765.5,378.5 Z"/></g>
<g><path style="opacity:1" fill="#d0d0d2" d="M 431.5,381.5 C 437.653,382.328 443.987,382.828 450.5,383C 451.423,385.041 451.756,387.208 451.5,389.5C 444.176,388.276 436.842,388.276 429.5,389.5C 429.5,387.833 429.5,386.167 429.5,384.5C 429.285,382.821 429.952,381.821 431.5,381.5 Z"/></g>
<g><path style="opacity:1" fill="#fcfcf8" d="M 746.5,381.5 C 746.36,383.124 747.027,384.29 748.5,385C 755.743,386.08 762.743,387.58 769.5,389.5C 770.833,394.833 770.833,400.167 769.5,405.5C 769.66,403.801 769.494,402.134 769,400.5C 768.667,400.833 768.333,401.167 768,401.5C 760.681,399.136 753.181,397.469 745.5,396.5C 745.179,391.305 745.513,386.305 746.5,381.5 Z"/></g>
<g><path style="opacity:1" fill="#fad312" d="M 432.5,377.5 C 429.777,378.352 427.11,379.519 424.5,381C 425.448,381.483 426.448,381.649 427.5,381.5C 427.5,388.5 427.5,395.5 427.5,402.5C 422.299,401.803 419.133,398.803 418,393.5C 417.333,389.5 417.333,385.5 418,381.5C 418.437,378.228 420.27,376.561 423.5,376.5C 423.5,375.5 423.5,374.5 423.5,373.5C 426.187,373.336 428.854,373.503 431.5,374C 432.337,375.011 432.67,376.178 432.5,377.5 Z"/></g>
<g><path style="opacity:1" fill="#d1d1d2" d="M 745.5,396.5 C 753.181,397.469 760.681,399.136 768,401.5C 768.333,401.167 768.667,400.833 769,400.5C 769.494,402.134 769.66,403.801 769.5,405.5C 769.5,406.167 769.5,406.833 769.5,407.5C 761.309,406.595 753.309,404.929 745.5,402.5C 745.5,400.5 745.5,398.5 745.5,396.5 Z"/></g>
<g><path style="opacity:1" fill="#d1d1d2" d="M 430.5,413.5 C 430.552,411.097 430.219,408.764 429.5,406.5C 436.945,403.908 444.612,402.574 452.5,402.5C 452.5,404.5 452.5,406.5 452.5,408.5C 444.712,408.281 437.379,409.948 430.5,413.5 Z"/></g>
<g><path style="opacity:1" fill="#fcfcfa" d="M 745.5,402.5 C 753.309,404.929 761.309,406.595 769.5,407.5C 769.419,412.477 768.419,417.143 766.5,421.5C 764.801,421.66 763.134,421.494 761.5,421C 755.742,418.648 750.075,416.148 744.5,413.5C 744.423,409.785 744.756,406.119 745.5,402.5 Z"/></g>
<g><path style="opacity:1" fill="#fcfbf8" d="M 456.5,423.5 C 453.75,424.191 451.083,425.191 448.5,426.5C 444.425,429.193 440.425,431.86 436.5,434.5C 435.07,428.308 433.07,422.308 430.5,416.5C 430.5,415.5 430.5,414.5 430.5,413.5C 437.379,409.948 444.712,408.281 452.5,408.5C 452.5,406.5 452.5,404.5 452.5,402.5C 444.612,402.574 436.945,403.908 429.5,406.5C 428.603,399 428.603,391.667 429.5,384.5C 429.5,386.167 429.5,387.833 429.5,389.5C 436.842,388.276 444.176,388.276 451.5,389.5C 451.756,387.208 451.423,385.041 450.5,383C 443.987,382.828 437.653,382.328 431.5,381.5C 431.433,380.041 431.766,378.708 432.5,377.5C 439.708,374.331 446.042,375.664 451.5,381.5C 452.115,395.65 453.781,409.65 456.5,423.5 Z"/></g>
<g><path style="opacity:1" fill="#f7e328" d="M 430.5,416.5 C 433.07,422.308 435.07,428.308 436.5,434.5C 437.441,436.05 438.107,437.716 438.5,439.5C 441.679,446.532 445.346,453.199 449.5,459.5C 449.427,461.027 450.094,462.027 451.5,462.5C 454.263,467.037 457.263,471.37 460.5,475.5C 466.504,489.526 474.504,502.192 484.5,513.5C 480.987,514.885 479.32,513.552 479.5,509.5C 478.325,509.719 477.325,509.386 476.5,508.5C 475.002,506.146 473.668,503.813 472.5,501.5C 469.5,501.5 466.5,501.5 463.5,501.5C 463.5,498.833 463.5,496.167 463.5,493.5C 386.167,493.5 308.833,493.5 231.5,493.5C 231.5,512.167 231.5,530.833 231.5,549.5C 231.5,573.5 231.5,597.5 231.5,621.5C 231.5,642.833 231.5,664.167 231.5,685.5C 231.167,685.5 230.833,685.5 230.5,685.5C 230.5,610.833 230.5,536.167 230.5,461.5C 231.496,448.344 231.829,435.01 231.5,421.5C 295.5,421.5 359.5,421.5 423.5,421.5C 423.5,420.167 423.5,418.833 423.5,417.5C 424.5,417.5 425.5,417.5 426.5,417.5C 426.337,415.143 426.503,412.81 427,410.5C 427.895,414.21 428.895,417.877 430,421.5C 430.494,419.866 430.66,418.199 430.5,416.5 Z"/></g>
<g><path style="opacity:1" fill="#f8e329" d="M 735.5,437.5 C 735.371,439.216 735.038,440.883 734.5,442.5C 731.628,448.056 728.295,453.39 724.5,458.5C 723.833,459.5 723.167,460.5 722.5,461.5C 720.529,463.808 718.529,466.142 716.5,468.5C 713.5,471.5 710.5,474.5 707.5,477.5C 703.873,479.794 700.539,482.46 697.5,485.5C 694.669,486.079 692.336,487.412 690.5,489.5C 684.653,492.324 678.987,495.324 673.5,498.5C 671.302,498.12 669.635,498.787 668.5,500.5C 653.68,504.996 638.68,508.663 623.5,511.5C 621.833,511.5 620.167,511.5 618.5,511.5C 606.833,511.5 595.167,511.5 583.5,511.5C 579.036,510.356 574.37,509.69 569.5,509.5C 563.366,508.439 557.366,507.105 551.5,505.5C 546.778,504.257 542.112,502.591 537.5,500.5C 535.716,500.107 534.05,499.441 532.5,498.5C 527.345,496.345 522.345,494.012 517.5,491.5C 515.819,489.992 513.819,488.992 511.5,488.5C 502.244,481.921 493.244,474.921 484.5,467.5C 483.167,465.5 481.5,463.833 479.5,462.5C 475.24,456.966 471.24,451.3 467.5,445.5C 466.833,444.833 466.167,444.167 465.5,443.5C 463.506,438.844 461.506,434.177 459.5,429.5C 459.708,427.08 459.374,424.747 458.5,422.5C 459.167,421.833 459.833,421.167 460.5,420.5C 459.365,418.201 458.032,416.034 456.5,414C 458.367,413.289 459.867,413.789 461,415.5C 461.813,417.436 462.313,419.436 462.5,421.5C 553.5,421.5 644.5,421.5 735.5,421.5C 735.536,426.762 735.536,432.095 735.5,437.5 Z"/></g>
<g><path style="opacity:1" fill="#fdfcfa" d="M 743.5,416.5 C 743.238,417.978 743.571,419.311 744.5,420.5C 749.808,423.548 755.475,425.715 761.5,427C 762.109,428.948 762.776,430.782 763.5,432.5C 762.932,437.62 761.266,442.287 758.5,446.5C 752.24,445.078 746.24,442.912 740.5,440C 738.859,438.871 737.859,437.371 737.5,435.5C 739.759,429.161 741.759,422.827 743.5,416.5 Z"/></g>
<g><path style="opacity:1" fill="#f8e329" d="M 969.5,493.5 C 968.502,527.996 968.168,562.663 968.5,597.5C 967.502,563.004 967.168,528.337 967.5,493.5C 892.833,493.5 818.167,493.5 743.5,493.5C 743.99,487.305 742.656,486.972 739.5,492.5C 738.311,493.429 736.978,493.762 735.5,493.5C 741.403,483.129 746.736,472.462 751.5,461.5C 753.017,458.965 754.35,456.298 755.5,453.5C 756.736,451.351 757.736,449.018 758.5,446.5C 761.266,442.287 762.932,437.62 763.5,432.5C 765.118,429.112 766.118,425.446 766.5,421.5C 768.419,417.143 769.419,412.477 769.5,407.5C 769.5,406.833 769.5,406.167 769.5,405.5C 770.833,400.167 770.833,394.833 769.5,389.5C 769.734,385.196 768.4,381.529 765.5,378.5C 765.5,377.5 765.5,376.5 765.5,375.5C 768.833,375.5 772.167,375.5 775.5,375.5C 775.833,379.167 777.833,381.167 781.5,381.5C 781.5,386.833 781.5,392.167 781.5,397.5C 780.167,397.5 778.833,397.5 777.5,397.5C 776.674,400.243 775.341,402.743 773.5,405C 774.059,405.725 774.392,406.558 774.5,407.5C 772.428,411.93 771.428,416.596 771.5,421.5C 772.5,421.5 773.5,421.5 774.5,421.5C 774.833,412.167 775.167,412.167 775.5,421.5C 839.5,421.5 903.5,421.5 967.5,421.5C 968.694,460.183 968.694,438.683 967.5,357C 721.764,356.168 476.097,356.334 230.5,357.5C 353.165,356.167 476.165,355.5 599.5,355.5C 722.5,355.667 845.5,355.833 968.5,356C 969.497,401.761 969.83,447.595 969.5,493.5 Z"/></g>
<g><path style="opacity:1" fill="#d3d2d4" d="M 744.5,413.5 C 750.075,416.148 755.742,418.648 761.5,421C 763.134,421.494 764.801,421.66 766.5,421.5C 766.118,425.446 765.118,429.112 763.5,432.5C 762.776,430.782 762.109,428.948 761.5,427C 755.475,425.715 749.808,423.548 744.5,420.5C 743.571,419.311 743.238,417.978 743.5,416.5C 743.263,415.209 743.596,414.209 744.5,413.5 Z"/></g>
<g><path style="opacity:1" fill="#d1d1d2" d="M 456.5,423.5 C 457.338,423.842 457.672,424.508 457.5,425.5C 457.313,427.564 456.813,429.564 456,431.5C 455.586,431.043 455.086,430.709 454.5,430.5C 449.463,434.019 444.13,437.019 438.5,439.5C 438.107,437.716 437.441,436.05 436.5,434.5C 440.425,431.86 444.425,429.193 448.5,426.5C 451.083,425.191 453.75,424.191 456.5,423.5 Z"/></g>
<g><path style="opacity:1" fill="#fbfbf8" d="M 457.5,425.5 C 458.167,426.833 458.833,428.167 459.5,429.5C 461.506,434.177 463.506,438.844 465.5,443.5C 459.108,447.055 453.441,451.555 448.5,457C 449.252,457.671 449.586,458.504 449.5,459.5C 445.346,453.199 441.679,446.532 438.5,439.5C 444.13,437.019 449.463,434.019 454.5,430.5C 455.086,430.709 455.586,431.043 456,431.5C 456.813,429.564 457.313,427.564 457.5,425.5 Z"/></g>
<g><path style="opacity:1" fill="#d1d0d1" d="M 465.5,443.5 C 466.167,444.167 466.833,444.833 467.5,445.5C 467.509,447.308 467.009,448.975 466,450.5C 460.952,454.394 456.119,458.394 451.5,462.5C 450.094,462.027 449.427,461.027 449.5,459.5C 449.586,458.504 449.252,457.671 448.5,457C 453.441,451.555 459.108,447.055 465.5,443.5 Z"/></g>
<g><path style="opacity:1" fill="#fcfbf8" d="M 734.5,442.5 C 735.64,443.801 736.973,444.968 738.5,446C 744.001,449.089 749.668,451.589 755.5,453.5C 754.35,456.298 753.017,458.965 751.5,461.5C 749.885,464.45 747.885,467.116 745.5,469.5C 739.682,466.756 734.349,463.256 729.5,459C 727.866,458.506 726.199,458.34 724.5,458.5C 728.295,453.39 731.628,448.056 734.5,442.5 Z"/></g>
<g><path style="opacity:1" fill="#d2d1d1" d="M 737.5,435.5 C 737.859,437.371 738.859,438.871 740.5,440C 746.24,442.912 752.24,445.078 758.5,446.5C 757.736,449.018 756.736,451.351 755.5,453.5C 749.668,451.589 744.001,449.089 738.5,446C 736.973,444.968 735.64,443.801 734.5,442.5C 735.038,440.883 735.371,439.216 735.5,437.5C 736.167,436.833 736.833,436.167 737.5,435.5 Z"/></g>
<g><path style="opacity:1" fill="#fcfbf8" d="M 467.5,445.5 C 471.24,451.3 475.24,456.966 479.5,462.5C 471.275,463.722 465.275,468.055 461.5,475.5C 461.167,475.5 460.833,475.5 460.5,475.5C 457.263,471.37 454.263,467.037 451.5,462.5C 456.119,458.394 460.952,454.394 466,450.5C 467.009,448.975 467.509,447.308 467.5,445.5 Z"/></g>
<g><path style="opacity:1" fill="#fcfcf9" d="M 722.5,461.5 C 727.903,467.047 734.236,471.38 741.5,474.5C 738.15,479.177 734.483,483.51 730.5,487.5C 729.833,488.833 728.833,489.833 727.5,490.5C 722.857,486.351 718.69,481.685 715,476.5C 714.288,473.562 714.788,470.896 716.5,468.5C 718.529,466.142 720.529,463.808 722.5,461.5 Z"/></g>
<g><path style="opacity:1" fill="#d2d1d2" d="M 724.5,458.5 C 726.199,458.34 727.866,458.506 729.5,459C 734.349,463.256 739.682,466.756 745.5,469.5C 744.864,471.795 743.531,473.461 741.5,474.5C 734.236,471.38 727.903,467.047 722.5,461.5C 723.167,460.5 723.833,459.5 724.5,458.5 Z"/></g>
<g><path style="opacity:1" fill="#d3d2d2" d="M 479.5,462.5 C 481.5,463.833 483.167,465.5 484.5,467.5C 480.226,468.541 475.893,470.375 471.5,473C 469.361,475.478 467.361,477.978 465.5,480.5C 463.937,479.055 462.604,477.389 461.5,475.5C 465.275,468.055 471.275,463.722 479.5,462.5 Z"/></g>
<g><path style="opacity:1" fill="#f8f8f6" d="M 484.5,467.5 C 493.244,474.921 502.244,481.921 511.5,488.5C 504.213,492.454 499.547,498.454 497.5,506.5C 492.442,502.443 487.108,498.776 481.5,495.5C 476.167,490.5 470.833,485.5 465.5,480.5C 467.361,477.978 469.361,475.478 471.5,473C 475.893,470.375 480.226,468.541 484.5,467.5 Z"/></g>
<g><path style="opacity:1" fill="#d3d2d2" d="M 716.5,468.5 C 714.788,470.896 714.288,473.562 715,476.5C 718.69,481.685 722.857,486.351 727.5,490.5C 726.147,492.183 724.48,493.516 722.5,494.5C 717.099,489.105 712.099,483.438 707.5,477.5C 710.5,474.5 713.5,471.5 716.5,468.5 Z"/></g>
<g><path style="opacity:1" fill="#f8df24" d="M 968.5,597.5 C 969.66,653.635 969.326,682.969 967.5,685.5C 967.5,664.167 967.5,642.833 967.5,621.5C 942.498,621.667 917.498,621.5 892.5,621C 890.302,620.627 888.135,620.127 886,619.5C 878.602,621.389 871.102,621.889 863.5,621C 868.833,620.333 874.167,619.667 879.5,619C 866.826,619.417 854.16,619.25 841.5,618.5C 837.307,618.398 833.307,619.231 829.5,621C 828.89,622.947 828.057,624.781 827,626.5C 826.667,626.167 826.333,625.833 826,625.5C 824.247,626.627 822.413,627.627 820.5,628.5C 820.5,627.5 820.5,626.5 820.5,625.5C 816.493,626.23 814.327,628.563 814,632.5C 813.692,631.692 813.192,631.025 812.5,630.5C 810.137,631.17 807.804,631.837 805.5,632.5C 815.259,624.449 826.593,619.449 839.5,617.5C 854.157,616.863 868.824,616.363 883.5,616C 885.058,615.79 886.391,615.29 887.5,614.5C 908.91,613.581 917.41,602.581 913,581.5C 910.83,565.993 906.83,550.993 901,536.5C 894.728,526.941 885.895,521.275 874.5,519.5C 873.791,518.596 872.791,518.263 871.5,518.5C 860.86,517.625 850.194,517.291 839.5,517.5C 793.267,518.523 751.6,532.523 714.5,559.5C 713.761,559.631 713.094,559.464 712.5,559C 714.918,555.953 717.918,553.62 721.5,552C 720.667,551.833 719.833,551.667 719,551.5C 716.778,553.194 714.278,554.194 711.5,554.5C 711.5,552.833 711.5,551.167 711.5,549.5C 702.838,550.07 694.338,549.403 686,547.5C 684.079,549.003 681.912,549.669 679.5,549.5C 679.5,550.5 679.5,551.5 679.5,552.5C 678.167,552.5 676.833,552.5 675.5,552.5C 675.898,557.463 674.231,558.463 670.5,555.5C 667.798,556.798 667.131,556.131 668.5,553.5C 683.273,545.406 697.273,536.073 710.5,525.5C 719.172,515.154 727.506,504.487 735.5,493.5C 736.978,493.762 738.311,493.429 739.5,492.5C 742.656,486.972 743.99,487.305 743.5,493.5C 818.167,493.5 892.833,493.5 967.5,493.5C 967.168,528.337 967.502,563.004 968.5,597.5 Z"/></g>
<g><path style="opacity:1" fill="#f9e024" d="M 484.5,513.5 C 490.899,520.214 497.566,526.714 504.5,533C 512.352,538.041 520.019,543.208 527.5,548.5C 525.712,549.622 523.712,549.789 521.5,549C 522.167,548.667 522.833,548.333 523.5,548C 522.421,547.044 521.255,546.211 520,545.5C 520.148,546.825 519.982,547.992 519.5,549C 423.501,549.5 327.501,549.667 231.5,549.5C 231.5,530.833 231.5,512.167 231.5,493.5C 308.833,493.5 386.167,493.5 463.5,493.5C 463.5,496.167 463.5,498.833 463.5,501.5C 466.5,501.5 469.5,501.5 472.5,501.5C 473.668,503.813 475.002,506.146 476.5,508.5C 477.325,509.386 478.325,509.719 479.5,509.5C 479.32,513.552 480.987,514.885 484.5,513.5 Z"/></g>
<g><path style="opacity:1" fill="#0c63bd" d="M 839.5,517.5 C 850.194,517.291 860.86,517.625 871.5,518.5C 871.38,519.586 870.713,520.253 869.5,520.5C 862.227,520.038 854.894,520.038 847.5,520.5C 841.089,520.603 834.756,520.103 828.5,519C 832.356,518.823 836.023,518.323 839.5,517.5 Z"/></g>
<g><path style="opacity:1" fill="#127ad4" d="M 874.5,519.5 C 885.895,521.275 894.728,526.941 901,536.5C 906.83,550.993 910.83,565.993 913,581.5C 917.41,602.581 908.91,613.581 887.5,614.5C 871.31,614.891 855.31,615.891 839.5,617.5C 826.593,619.449 815.259,624.449 805.5,632.5C 797.128,638.71 790.295,646.377 785,655.5C 779.109,666.215 774.943,677.549 772.5,689.5C 768.515,708.772 764.849,728.105 761.5,747.5C 760.778,747.918 760.278,748.584 760,749.5C 759.501,753.486 759.334,757.486 759.5,761.5C 783.842,761.167 808.176,761.5 832.5,762.5C 833.081,764.724 834.414,765.557 836.5,765C 834.595,764.174 834.261,763.007 835.5,761.5C 836.62,762.833 837.953,763.333 839.5,763C 837.497,761.181 836.164,759.015 835.5,756.5C 832.615,754.356 829.281,752.856 825.5,752C 824.262,751.31 824.262,750.81 825.5,750.5C 835.186,752.687 841.019,758.687 843,768.5C 843.499,776.512 843.333,784.512 842.5,792.5C 840.12,805.183 836.287,817.516 831,829.5C 825.146,838.024 817.313,843.858 807.5,847C 786.159,847.167 764.826,847.667 743.5,848.5C 739.273,865.306 735.94,882.306 733.5,899.5C 732.663,905.529 731.663,911.529 730.5,917.5C 729.232,919.905 728.565,922.572 728.5,925.5C 727.756,929.119 727.423,932.785 727.5,936.5C 725.27,944.599 723.604,952.933 722.5,961.5C 721.566,962.568 721.232,963.901 721.5,965.5C 679.5,965.5 637.5,965.5 595.5,965.5C 595.833,960.167 596.167,954.833 596.5,949.5C 597.5,949.5 598.5,949.5 599.5,949.5C 599.172,944.125 599.505,938.792 600.5,933.5C 605.154,909.595 609.154,885.595 612.5,861.5C 613.5,861.5 614.5,861.5 615.5,861.5C 615.5,856.833 615.5,852.167 615.5,847.5C 612.833,847.5 610.167,847.5 607.5,847.5C 607.795,849.735 607.461,851.735 606.5,853.5C 606.5,851.167 606.5,848.833 606.5,846.5C 572.167,846.5 537.833,846.5 503.5,846.5C 491.013,845.936 478.679,845.269 466.5,844.5C 473.041,844.462 473.041,843.796 466.5,842.5C 468.078,841.702 469.744,841.202 471.5,841C 460.79,840.719 450.123,839.885 439.5,838.5C 425.096,839.375 410.596,840.042 396,840.5C 384.812,840.455 373.645,839.955 362.5,839C 370.45,838.997 378.283,838.164 386,836.5C 387,837.167 388,837.833 389,838.5C 392.367,837.117 395.867,836.283 399.5,836C 395.5,835.667 391.5,835.333 387.5,835C 393.361,834.28 399.194,834.446 405,835.5C 405.833,835.333 406.667,835.167 407.5,835C 406.167,834.667 404.833,834.333 403.5,834C 415.568,833.797 427.568,832.797 439.5,831C 434.177,830.501 428.844,830.334 423.5,830.5C 450.019,829.178 476.686,827.844 503.5,826.5C 503.219,822.812 502.719,819.145 502,815.5C 501.228,814.151 500.061,813.318 498.5,813C 475.114,809.823 451.781,806.323 428.5,802.5C 451.522,800.247 474.522,797.914 497.5,795.5C 496.308,790.733 494.808,786.066 493,781.5C 489.636,780.261 486.136,779.594 482.5,779.5C 449.676,774.082 416.676,768.915 383.5,764C 382.833,763.667 382.167,763.333 381.5,763C 395.49,761.334 409.49,759.834 423.5,758.5C 425.954,758.321 428.121,758.987 430,760.5C 431.68,759.453 433.514,758.787 435.5,758.5C 501.493,759.458 567.493,759.958 633.5,760C 638.105,738.014 641.938,715.847 645,693.5C 646.607,689.235 647.94,684.902 649,680.5C 649.499,676.848 649.665,673.182 649.5,669.5C 650.5,669.5 651.5,669.5 652.5,669.5C 653.586,659.784 657.086,651.117 663,643.5C 663.66,638.525 665.16,633.859 667.5,629.5C 670.321,625.883 672.488,621.883 674,617.5C 675.257,615.254 677.09,613.921 679.5,613.5C 679.934,609.333 681.601,605.667 684.5,602.5C 691.984,592.503 700.484,583.169 710,574.5C 710.483,573.552 710.649,572.552 710.5,571.5C 711.552,571.649 712.552,571.483 713.5,571C 719.135,565.97 725.468,562.303 732.5,560C 731.269,558.817 731.269,557.651 732.5,556.5C 736.167,554.667 739.833,552.833 743.5,551C 742.549,550.282 742.383,549.449 743,548.5C 744.049,549.517 745.216,549.684 746.5,549C 751.312,544.426 756.979,541.76 763.5,541C 769.735,538.299 775.902,535.465 782,532.5C 811.304,526.694 841.137,523.361 871.5,522.5C 872.025,521.808 872.692,521.308 873.5,521C 872.288,519.893 872.621,519.393 874.5,519.5 Z"/></g>
<g><path style="opacity:1" fill="#bda627" d="M 751.5,461.5 C 746.736,472.462 741.403,483.129 735.5,493.5C 727.506,504.487 719.172,515.154 710.5,525.5C 697.273,536.073 683.273,545.406 668.5,553.5C 642.463,564.632 615.13,569.798 586.5,569C 565.523,565.49 545.856,558.657 527.5,548.5C 520.019,543.208 512.352,538.041 504.5,533C 497.566,526.714 490.899,520.214 484.5,513.5C 474.504,502.192 466.504,489.526 460.5,475.5C 460.833,475.5 461.167,475.5 461.5,475.5C 462.604,477.389 463.937,479.055 465.5,480.5C 470.833,485.5 476.167,490.5 481.5,495.5C 507.644,527.751 541.644,546.251 583.5,551C 627.308,555.434 666.974,545.101 702.5,520C 712.811,509.687 722.811,499.021 732.5,488C 731.906,487.536 731.239,487.369 730.5,487.5C 734.483,483.51 738.15,479.177 741.5,474.5C 743.531,473.461 744.864,471.795 745.5,469.5C 747.885,467.116 749.885,464.45 751.5,461.5 Z"/></g>
<g><path style="opacity:1" fill="#f7df27" d="M 730.5,487.5 C 731.239,487.369 731.906,487.536 732.5,488C 722.811,499.021 712.811,509.687 702.5,520C 666.974,545.101 627.308,555.434 583.5,551C 541.644,546.251 507.644,527.751 481.5,495.5C 487.108,498.776 492.442,502.443 497.5,506.5C 498.605,507.6 499.938,508.267 501.5,508.5C 507.785,511.751 514.119,515.085 520.5,518.5C 521.82,519.942 523.486,520.608 525.5,520.5C 530.492,523.058 535.825,525.058 541.5,526.5C 544.426,527.698 547.426,528.698 550.5,529.5C 554.524,530.038 558.524,530.705 562.5,531.5C 565.589,532.785 568.922,533.451 572.5,533.5C 578.121,534.354 583.788,534.687 589.5,534.5C 592.167,534.5 594.833,534.5 597.5,534.5C 604.833,534.5 612.167,534.5 619.5,534.5C 621.861,534.326 624.194,533.993 626.5,533.5C 634.046,533.142 641.379,531.809 648.5,529.5C 651.152,529.59 653.485,528.924 655.5,527.5C 662.015,527.297 668.015,525.63 673.5,522.5C 675.786,522.405 677.786,521.738 679.5,520.5C 686.899,517.967 693.899,514.633 700.5,510.5C 702.23,509.974 703.564,508.974 704.5,507.5C 711.21,504.145 717.21,499.812 722.5,494.5C 724.48,493.516 726.147,492.183 727.5,490.5C 728.833,489.833 729.833,488.833 730.5,487.5 Z"/></g>
<g><path style="opacity:1" fill="#d4d3cf" d="M 569.5,509.5 C 574.37,509.69 579.036,510.356 583.5,511.5C 581.08,511.292 578.747,511.626 576.5,512.5C 572.459,518.323 570.459,524.823 570.5,532C 571.416,532.278 572.082,532.778 572.5,533.5C 568.922,533.451 565.589,532.785 562.5,531.5C 563.649,531.209 564.316,530.376 564.5,529C 565.728,522.353 567.394,515.853 569.5,509.5 Z"/></g>
<g><path style="opacity:1" fill="#d3d2d2" d="M 618.5,511.5 C 620.167,511.5 621.833,511.5 623.5,511.5C 625.57,511.583 625.903,512.583 624.5,514.5C 625.606,520.788 626.273,527.121 626.5,533.5C 624.194,533.993 621.861,534.326 619.5,534.5C 620.018,533.423 620.352,532.256 620.5,531C 618.77,524.626 618.104,518.126 618.5,511.5 Z"/></g>
<g><path style="opacity:1" fill="#d3d2d3" d="M 551.5,505.5 C 552.278,506.156 552.944,506.989 553.5,508C 550.388,514.95 549.388,522.117 550.5,529.5C 547.426,528.698 544.426,527.698 541.5,526.5C 543.477,519.682 545.144,512.682 546.5,505.5C 548.167,505.5 549.833,505.5 551.5,505.5 Z"/></g>
<g><path style="opacity:1" fill="#fdfcfa" d="M 583.5,511.5 C 595.167,511.5 606.833,511.5 618.5,511.5C 618.104,518.126 618.77,524.626 620.5,531C 620.352,532.256 620.018,533.423 619.5,534.5C 612.167,534.5 604.833,534.5 597.5,534.5C 595.711,528.984 595.211,523.318 596,517.5C 596.273,515.671 597.107,514.171 598.5,513C 593.913,511.705 590.747,513.205 589,517.5C 588.374,523.195 588.541,528.862 589.5,534.5C 583.788,534.687 578.121,534.354 572.5,533.5C 572.082,532.778 571.416,532.278 570.5,532C 570.459,524.823 572.459,518.323 576.5,512.5C 578.747,511.626 581.08,511.292 583.5,511.5 Z"/></g>
<g><path style="opacity:1" fill="#d3d3d5" d="M 597.5,534.5 C 594.833,534.5 592.167,534.5 589.5,534.5C 588.541,528.862 588.374,523.195 589,517.5C 590.747,513.205 593.913,511.705 598.5,513C 597.107,514.171 596.273,515.671 596,517.5C 595.211,523.318 595.711,528.984 597.5,534.5 Z"/></g>
<g><path style="opacity:1" fill="#d3d1d1" d="M 532.5,498.5 C 534.05,499.441 535.716,500.107 537.5,500.5C 532.487,505.688 529.154,511.855 527.5,519C 527.164,520.03 526.497,520.53 525.5,520.5C 523.486,520.608 521.82,519.942 520.5,518.5C 522.059,513.717 523.892,509.05 526,504.5C 527.744,501.918 529.91,499.918 532.5,498.5 Z"/></g>
<g><path style="opacity:1" fill="#d3d2d3" d="M 679.5,520.5 C 677.786,521.738 675.786,522.405 673.5,522.5C 672.972,521.279 672.305,520.113 671.5,519C 671.833,518.667 672.167,518.333 672.5,518C 670.48,512.214 669.147,506.381 668.5,500.5C 669.635,498.787 671.302,498.12 673.5,498.5C 674.496,498.586 675.329,498.252 676,497.5C 676.333,502.5 676.667,507.5 677,512.5C 677.674,515.26 678.507,517.927 679.5,520.5 Z"/></g>
<g><path style="opacity:1" fill="#d1d1d2" d="M 655.5,527.5 C 653.485,528.924 651.152,529.59 648.5,529.5C 645.087,522.59 643.753,515.256 644.5,507.5C 646.5,507.5 648.5,507.5 650.5,507.5C 649.874,514.861 651.541,521.528 655.5,527.5 Z"/></g>
<g><path style="opacity:1" fill="#fcfcf8" d="M 668.5,500.5 C 669.147,506.381 670.48,512.214 672.5,518C 672.167,518.333 671.833,518.667 671.5,519C 672.305,520.113 672.972,521.279 673.5,522.5C 668.015,525.63 662.015,527.297 655.5,527.5C 651.541,521.528 649.874,514.861 650.5,507.5C 648.5,507.5 646.5,507.5 644.5,507.5C 643.753,515.256 645.087,522.59 648.5,529.5C 641.379,531.809 634.046,533.142 626.5,533.5C 626.273,527.121 625.606,520.788 624.5,514.5C 625.903,512.583 625.57,511.583 623.5,511.5C 638.68,508.663 653.68,504.996 668.5,500.5 Z"/></g>
<g><path style="opacity:1" fill="#fcfcfa" d="M 551.5,505.5 C 557.366,507.105 563.366,508.439 569.5,509.5C 567.394,515.853 565.728,522.353 564.5,529C 564.316,530.376 563.649,531.209 562.5,531.5C 558.524,530.705 554.524,530.038 550.5,529.5C 549.388,522.117 550.388,514.95 553.5,508C 552.944,506.989 552.278,506.156 551.5,505.5 Z"/></g>
<g><path style="opacity:1" fill="#fcfbf8" d="M 537.5,500.5 C 542.112,502.591 546.778,504.257 551.5,505.5C 549.833,505.5 548.167,505.5 546.5,505.5C 545.144,512.682 543.477,519.682 541.5,526.5C 535.825,525.058 530.492,523.058 525.5,520.5C 526.497,520.53 527.164,520.03 527.5,519C 529.154,511.855 532.487,505.688 537.5,500.5 Z"/></g>
<g><path style="opacity:1" fill="#d2d1d1" d="M 697.5,485.5 C 697.999,489.49 698.499,493.49 699,497.5C 701.292,500.675 703.125,504.009 704.5,507.5C 703.564,508.974 702.23,509.974 700.5,510.5C 699.828,509.733 698.995,509.066 698,508.5C 695.903,503.241 693.736,498.074 691.5,493C 692.308,492.692 692.975,492.192 693.5,491.5C 692.398,490.824 691.398,490.158 690.5,489.5C 692.336,487.412 694.669,486.079 697.5,485.5 Z"/></g>
<g><path style="opacity:1" fill="#d1d1d1" d="M 511.5,488.5 C 513.819,488.992 515.819,489.992 517.5,491.5C 515.711,493.007 513.711,494.34 511.5,495.5C 508.389,500.082 505.055,504.416 501.5,508.5C 499.938,508.267 498.605,507.6 497.5,506.5C 499.547,498.454 504.213,492.454 511.5,488.5 Z"/></g>
<g><path style="opacity:1" fill="#fcfbf8" d="M 690.5,489.5 C 691.398,490.158 692.398,490.824 693.5,491.5C 692.975,492.192 692.308,492.692 691.5,493C 693.736,498.074 695.903,503.241 698,508.5C 698.995,509.066 699.828,509.733 700.5,510.5C 693.899,514.633 686.899,517.967 679.5,520.5C 678.507,517.927 677.674,515.26 677,512.5C 676.667,507.5 676.333,502.5 676,497.5C 675.329,498.252 674.496,498.586 673.5,498.5C 678.987,495.324 684.653,492.324 690.5,489.5 Z"/></g>
<g><path style="opacity:1" fill="#fcfbf9" d="M 517.5,491.5 C 522.345,494.012 527.345,496.345 532.5,498.5C 529.91,499.918 527.744,501.918 526,504.5C 523.892,509.05 522.059,513.717 520.5,518.5C 514.119,515.085 507.785,511.751 501.5,508.5C 505.055,504.416 508.389,500.082 511.5,495.5C 513.711,494.34 515.711,493.007 517.5,491.5 Z"/></g>
<g><path style="opacity:1" fill="#fcfcfa" d="M 707.5,477.5 C 712.099,483.438 717.099,489.105 722.5,494.5C 717.21,499.812 711.21,504.145 704.5,507.5C 703.125,504.009 701.292,500.675 699,497.5C 698.499,493.49 697.999,489.49 697.5,485.5C 700.539,482.46 703.873,479.794 707.5,477.5 Z"/></g>
<g><path style="opacity:1" fill="#f9dc20" d="M 527.5,548.5 C 545.856,558.657 565.523,565.49 586.5,569C 615.13,569.798 642.463,564.632 668.5,553.5C 667.131,556.131 667.798,556.798 670.5,555.5C 674.231,558.463 675.898,557.463 675.5,552.5C 676.833,552.5 678.167,552.5 679.5,552.5C 679.5,551.5 679.5,550.5 679.5,549.5C 681.912,549.669 684.079,549.003 686,547.5C 694.338,549.403 702.838,550.07 711.5,549.5C 711.5,551.167 711.5,552.833 711.5,554.5C 714.278,554.194 716.778,553.194 719,551.5C 719.833,551.667 720.667,551.833 721.5,552C 717.918,553.62 714.918,555.953 712.5,559C 713.094,559.464 713.761,559.631 714.5,559.5C 694.715,575.454 677.882,594.121 664,615.5C 658.539,626.087 653.372,636.754 648.5,647.5C 648.67,646.178 648.337,645.011 647.5,644C 648.574,643.261 649.241,642.261 649.5,641C 648.427,639.584 648.427,638.25 649.5,637C 647.772,634.616 647.439,632.116 648.5,629.5C 649.833,632.167 651.167,632.167 652.5,629.5C 653.192,630.025 653.692,630.692 654,631.5C 655.02,630.109 655.853,628.609 656.5,627C 655.446,625.612 655.28,624.112 656,622.5C 656.669,625.028 657.502,625.028 658.5,622.5C 657.137,621.107 656.304,619.441 656,617.5C 655.51,618.793 655.343,620.127 655.5,621.5C 514.167,621.5 372.833,621.5 231.5,621.5C 231.5,597.5 231.5,573.5 231.5,549.5C 327.501,549.667 423.501,549.5 519.5,549C 519.982,547.992 520.148,546.825 520,545.5C 521.255,546.211 522.421,547.044 523.5,548C 522.833,548.333 522.167,548.667 521.5,549C 523.712,549.789 525.712,549.622 527.5,548.5 Z"/></g>
<g><path style="opacity:0.169" fill="#e8dbb6" d="M 971.5,399.5 C 971.833,399.5 972.167,399.5 972.5,399.5C 973.143,571.002 973.476,743.002 973.5,915.5C 973.706,921.749 973.04,927.749 971.5,933.5C 971.5,755.5 971.5,577.5 971.5,399.5 Z"/></g>
<g><path style="opacity:0.939" fill="#f6dd1d" d="M 228.5,357.5 C 228.833,357.5 229.167,357.5 229.5,357.5C 229.5,453.5 229.5,549.5 229.5,645.5C 228.501,741.332 228.167,837.332 228.5,933.5C 228.167,933.5 227.833,933.5 227.5,933.5C 227.5,780.833 227.5,628.167 227.5,475.5C 228.499,436.337 228.832,397.004 228.5,357.5 Z"/></g>
<g><path style="opacity:0.004" fill="#e7e1e5" d="M 226.5,353.5 C 226.167,547.001 226.5,740.334 227.5,933.5C 227.833,933.5 228.167,933.5 228.5,933.5C 228.678,936.216 229.178,938.883 230,941.5C 232.323,945.977 234.823,950.31 237.5,954.5C 231.425,949.227 227.592,942.56 226,934.5C 225.798,907.82 225.298,881.154 224.5,854.5C 225.161,687.344 225.828,520.344 226.5,353.5 Z"/></g>
<g><path style="opacity:1" fill="#1568b3" d="M 839.5,517.5 C 836.023,518.323 832.356,518.823 828.5,519C 834.756,520.103 841.089,520.603 847.5,520.5C 854.894,520.038 862.227,520.038 869.5,520.5C 870.713,520.253 871.38,519.586 871.5,518.5C 872.791,518.263 873.791,518.596 874.5,519.5C 872.621,519.393 872.288,519.893 873.5,521C 872.692,521.308 872.025,521.808 871.5,522.5C 841.137,523.361 811.304,526.694 782,532.5C 775.902,535.465 769.735,538.299 763.5,541C 756.979,541.76 751.312,544.426 746.5,549C 745.216,549.684 744.049,549.517 743,548.5C 742.383,549.449 742.549,550.282 743.5,551C 739.833,552.833 736.167,554.667 732.5,556.5C 731.269,557.651 731.269,558.817 732.5,560C 725.468,562.303 719.135,565.97 713.5,571C 712.552,571.483 711.552,571.649 710.5,571.5C 710.649,572.552 710.483,573.552 710,574.5C 700.484,583.169 691.984,592.503 684.5,602.5C 681.601,605.667 679.934,609.333 679.5,613.5C 677.09,613.921 675.257,615.254 674,617.5C 672.488,621.883 670.321,625.883 667.5,629.5C 665.16,633.859 663.66,638.525 663,643.5C 657.086,651.117 653.586,659.784 652.5,669.5C 651.5,669.5 650.5,669.5 649.5,669.5C 649.665,673.182 649.499,676.848 649,680.5C 647.94,684.902 646.607,689.235 645,693.5C 641.938,715.847 638.105,738.014 633.5,760C 567.493,759.958 501.493,759.458 435.5,758.5C 433.514,758.787 431.68,759.453 430,760.5C 428.121,758.987 425.954,758.321 423.5,758.5C 448.262,755.089 473.262,752.256 498.5,750C 540.832,749.5 583.165,749.333 625.5,749.5C 627.52,733.397 630.187,717.397 633.5,701.5C 636.726,683.056 641.726,665.056 648.5,647.5C 653.372,636.754 658.539,626.087 664,615.5C 677.882,594.121 694.715,575.454 714.5,559.5C 751.6,532.523 793.267,518.523 839.5,517.5 Z"/></g>
<g><path style="opacity:1" fill="#adbd5c" d="M 887.5,614.5 C 886.391,615.29 885.058,615.79 883.5,616C 868.824,616.363 854.157,616.863 839.5,617.5C 855.31,615.891 871.31,614.891 887.5,614.5 Z"/></g>
<g><path style="opacity:1" fill="#fada1d" d="M 648.5,647.5 C 641.726,665.056 636.726,683.056 633.5,701.5C 632.602,695.794 632.602,690.127 633.5,684.5C 632.77,681.891 632.27,679.224 632,676.5C 631.502,679.482 631.335,682.482 631.5,685.5C 498.167,685.5 364.833,685.5 231.5,685.5C 231.5,664.167 231.5,642.833 231.5,621.5C 372.833,621.5 514.167,621.5 655.5,621.5C 655.343,620.127 655.51,618.793 656,617.5C 656.304,619.441 657.137,621.107 658.5,622.5C 657.502,625.028 656.669,625.028 656,622.5C 655.28,624.112 655.446,625.612 656.5,627C 655.853,628.609 655.02,630.109 654,631.5C 653.692,630.692 653.192,630.025 652.5,629.5C 651.167,632.167 649.833,632.167 648.5,629.5C 647.439,632.116 647.772,634.616 649.5,637C 648.427,638.25 648.427,639.584 649.5,641C 649.241,642.261 648.574,643.261 647.5,644C 648.337,645.011 648.67,646.178 648.5,647.5 Z"/></g>
<g><path style="opacity:1" fill="#fad91d" d="M 967.5,685.5 C 906.167,685.5 844.833,685.5 783.5,685.5C 783.664,682.813 783.497,680.146 783,677.5C 782,674.833 781,674.833 780,677.5C 779.667,677.167 779.333,676.833 779,676.5C 778.502,679.482 778.335,682.482 778.5,685.5C 775.089,684.933 773.089,686.266 772.5,689.5C 774.943,677.549 779.109,666.215 785,655.5C 790.295,646.377 797.128,638.71 805.5,632.5C 807.804,631.837 810.137,631.17 812.5,630.5C 813.192,631.025 813.692,631.692 814,632.5C 814.327,628.563 816.493,626.23 820.5,625.5C 820.5,626.5 820.5,627.5 820.5,628.5C 822.413,627.627 824.247,626.627 826,625.5C 826.333,625.833 826.667,626.167 827,626.5C 828.057,624.781 828.89,622.947 829.5,621C 833.307,619.231 837.307,618.398 841.5,618.5C 854.16,619.25 866.826,619.417 879.5,619C 874.167,619.667 868.833,620.333 863.5,621C 871.102,621.889 878.602,621.389 886,619.5C 888.135,620.127 890.302,620.627 892.5,621C 917.498,621.5 942.498,621.667 967.5,621.5C 967.5,642.833 967.5,664.167 967.5,685.5 Z"/></g>
<g><path style="opacity:1" fill="#fad616" d="M 633.5,701.5 C 630.187,717.397 627.52,733.397 625.5,749.5C 583.165,749.333 540.832,749.5 498.5,750C 473.262,752.256 448.262,755.089 423.5,758.5C 409.49,759.834 395.49,761.334 381.5,763C 382.167,763.333 382.833,763.667 383.5,764C 416.676,768.915 449.676,774.082 482.5,779.5C 474.787,779.411 467.121,778.744 459.5,777.5C 458.167,777.667 456.833,777.833 455.5,778C 459.469,778.853 463.469,779.519 467.5,780C 465.5,780.5 463.5,781 461.5,781.5C 454.184,780.497 446.85,780.497 439.5,781.5C 439.5,778.833 439.5,776.167 439.5,773.5C 436.833,773.5 434.167,773.5 431.5,773.5C 431.5,776.167 431.5,778.833 431.5,781.5C 364.833,781.5 298.167,781.5 231.5,781.5C 230.4,765.514 230.066,733.514 230.5,685.5C 230.833,685.5 231.167,685.5 231.5,685.5C 364.833,685.5 498.167,685.5 631.5,685.5C 631.335,682.482 631.502,679.482 632,676.5C 632.27,679.224 632.77,681.891 633.5,684.5C 632.602,690.127 632.602,695.794 633.5,701.5 Z"/></g>
<g><path style="opacity:1" fill="#fad617" d="M 970.5,353.5 C 971.496,368.658 971.83,383.991 971.5,399.5C 971.5,577.5 971.5,755.5 971.5,933.5C 971.585,936.649 970.585,939.316 968.5,941.5C 970.566,903.22 971.066,864.886 970,826.5C 969.825,821.981 969.325,817.647 968.5,813.5C 967.506,803.013 967.172,792.346 967.5,781.5C 927.5,781.5 887.5,781.5 847.5,781.5C 847.067,784.166 846.567,786.832 846,789.5C 845.667,788.5 845.333,787.5 845,786.5C 844.963,788.974 844.13,790.974 842.5,792.5C 843.333,784.512 843.499,776.512 843,768.5C 841.019,758.687 835.186,752.687 825.5,750.5C 803.98,750.163 782.647,749.163 761.5,747.5C 764.849,728.105 768.515,708.772 772.5,689.5C 773.089,686.266 775.089,684.933 778.5,685.5C 778.335,682.482 778.502,679.482 779,676.5C 779.333,676.833 779.667,677.167 780,677.5C 781,674.833 782,674.833 783,677.5C 783.497,680.146 783.664,682.813 783.5,685.5C 844.833,685.5 906.167,685.5 967.5,685.5C 969.326,682.969 969.66,653.635 968.5,597.5C 968.168,562.663 968.502,527.996 969.5,493.5C 970.499,447.003 970.832,400.336 970.5,353.5 Z"/></g>
<g><path style="opacity:1" fill="#0d69b3" d="M 761.5,747.5 C 782.647,749.163 803.98,750.163 825.5,750.5C 824.262,750.81 824.262,751.31 825.5,752C 829.281,752.856 832.615,754.356 835.5,756.5C 836.164,759.015 837.497,761.181 839.5,763C 837.953,763.333 836.62,762.833 835.5,761.5C 834.261,763.007 834.595,764.174 836.5,765C 834.414,765.557 833.081,764.724 832.5,762.5C 808.176,761.5 783.842,761.167 759.5,761.5C 759.334,757.486 759.501,753.486 760,749.5C 760.278,748.584 760.778,747.918 761.5,747.5 Z"/></g>
<g><path style="opacity:1" fill="#fbd114" d="M 229.5,357.5 C 229.833,357.5 230.167,357.5 230.5,357.5C 230.5,392.167 230.5,426.833 230.5,461.5C 230.5,536.167 230.5,610.833 230.5,685.5C 230.066,733.514 230.4,765.514 231.5,781.5C 298.167,781.5 364.833,781.5 431.5,781.5C 431.5,778.833 431.5,776.167 431.5,773.5C 434.167,773.5 436.833,773.5 439.5,773.5C 439.5,776.167 439.5,778.833 439.5,781.5C 446.85,780.497 454.184,780.497 461.5,781.5C 463.5,781 465.5,780.5 467.5,780C 463.469,779.519 459.469,778.853 455.5,778C 456.833,777.833 458.167,777.667 459.5,777.5C 467.121,778.744 474.787,779.411 482.5,779.5C 486.136,779.594 489.636,780.261 493,781.5C 494.808,786.066 496.308,790.733 497.5,795.5C 474.522,797.914 451.522,800.247 428.5,802.5C 451.781,806.323 475.114,809.823 498.5,813C 500.061,813.318 501.228,814.151 502,815.5C 502.719,819.145 503.219,822.812 503.5,826.5C 476.686,827.844 450.019,829.178 423.5,830.5C 378.177,832.999 332.844,835.499 287.5,838C 303.481,839.166 319.481,839.999 335.5,840.5C 351.295,842.274 367.295,842.941 383.5,842.5C 411.17,843.028 438.837,843.695 466.5,844.5C 478.679,845.269 491.013,845.936 503.5,846.5C 537.329,847.498 571.329,847.832 605.5,847.5C 605.5,849.5 605.5,851.5 605.5,853.5C 604.232,855.905 603.565,858.572 603.5,861.5C 602.492,866.961 601.492,872.294 600.5,877.5C 600.5,874.833 600.5,872.167 600.5,869.5C 477.5,869.5 354.5,869.5 231.5,869.5C 231.6,890.847 231.1,912.18 230,933.5C 229.5,837.501 229.333,741.501 229.5,645.5C 229.5,549.5 229.5,453.5 229.5,357.5 Z"/></g>
<g><path style="opacity:1" fill="#fcd111" d="M 968.5,813.5 C 968.667,850.835 968.5,888.168 968,925.5C 967.5,906.836 967.333,888.17 967.5,869.5C 892.833,869.5 818.167,869.5 743.5,869.5C 743.66,867.801 743.494,866.134 743,864.5C 742.576,866.976 741.743,869.309 740.5,871.5C 739.167,874.167 739.167,876.833 740.5,879.5C 738.15,886.275 735.816,892.942 733.5,899.5C 735.94,882.306 739.273,865.306 743.5,848.5C 764.826,847.667 786.159,847.167 807.5,847C 817.313,843.858 825.146,838.024 831,829.5C 836.287,817.516 840.12,805.183 842.5,792.5C 844.13,790.974 844.963,788.974 845,786.5C 845.333,787.5 845.667,788.5 846,789.5C 846.567,786.832 847.067,784.166 847.5,781.5C 887.5,781.5 927.5,781.5 967.5,781.5C 967.172,792.346 967.506,803.013 968.5,813.5 Z"/></g>
<g><path style="opacity:1" fill="#2078d8" d="M 423.5,830.5 C 428.844,830.334 434.177,830.501 439.5,831C 427.568,832.797 415.568,833.797 403.5,834C 404.833,834.333 406.167,834.667 407.5,835C 406.667,835.167 405.833,835.333 405,835.5C 399.194,834.446 393.361,834.28 387.5,835C 391.5,835.333 395.5,835.667 399.5,836C 395.867,836.283 392.367,837.117 389,838.5C 388,837.833 387,837.167 386,836.5C 378.283,838.164 370.45,838.997 362.5,839C 373.645,839.955 384.812,840.455 396,840.5C 410.596,840.042 425.096,839.375 439.5,838.5C 450.123,839.885 460.79,840.719 471.5,841C 469.744,841.202 468.078,841.702 466.5,842.5C 473.041,843.796 473.041,844.462 466.5,844.5C 438.837,843.695 411.17,843.028 383.5,842.5C 367.684,841.174 351.684,840.508 335.5,840.5C 319.481,839.999 303.481,839.166 287.5,838C 332.844,835.499 378.177,832.999 423.5,830.5 Z"/></g>
<g><path style="opacity:1" fill="#c6c444" d="M 335.5,840.5 C 351.684,840.508 367.684,841.174 383.5,842.5C 367.295,842.941 351.295,842.274 335.5,840.5 Z"/></g>
<g><path style="opacity:1" fill="#719a7c" d="M 503.5,846.5 C 537.833,846.5 572.167,846.5 606.5,846.5C 606.5,848.833 606.5,851.167 606.5,853.5C 606.167,853.5 605.833,853.5 605.5,853.5C 605.5,851.5 605.5,849.5 605.5,847.5C 571.329,847.832 537.329,847.498 503.5,846.5 Z"/></g>
<g><path style="opacity:1" fill="#1e6eb7" d="M 721.5,965.5 C 676.264,966.83 630.931,966.83 585.5,965.5C 590.244,936.116 595.244,906.783 600.5,877.5C 601.492,872.294 602.492,866.961 603.5,861.5C 605.04,859.162 605.706,856.495 605.5,853.5C 605.833,853.5 606.167,853.5 606.5,853.5C 607.461,851.735 607.795,849.735 607.5,847.5C 610.167,847.5 612.833,847.5 615.5,847.5C 615.5,852.167 615.5,856.833 615.5,861.5C 614.5,861.5 613.5,861.5 612.5,861.5C 609.154,885.595 605.154,909.595 600.5,933.5C 599.505,938.792 599.172,944.125 599.5,949.5C 598.5,949.5 597.5,949.5 596.5,949.5C 596.167,954.833 595.833,960.167 595.5,965.5C 637.5,965.5 679.5,965.5 721.5,965.5 Z"/></g>
<g><path style="opacity:1" fill="#849962" d="M 605.5,853.5 C 605.706,856.495 605.04,859.162 603.5,861.5C 603.565,858.572 604.232,855.905 605.5,853.5 Z"/></g>
<g><path style="opacity:1" fill="#fccd09" d="M 229.5,645.5 C 229.333,741.501 229.5,837.501 230,933.5C 231.1,912.18 231.6,890.847 231.5,869.5C 354.5,869.5 477.5,869.5 600.5,869.5C 600.5,872.167 600.5,874.833 600.5,877.5C 595.244,906.783 590.244,936.116 585.5,965.5C 585.158,966.338 584.492,966.672 583.5,966.5C 476.166,966.667 368.833,966.5 261.5,966C 256.678,965.335 252.012,964.168 247.5,962.5C 245.082,960.417 242.749,958.083 240.5,955.5C 239.583,954.873 238.583,954.539 237.5,954.5C 234.823,950.31 232.323,945.977 230,941.5C 229.178,938.883 228.678,936.216 228.5,933.5C 228.167,837.332 228.501,741.332 229.5,645.5 Z"/></g>
<g><path style="opacity:1" fill="#fccd0a" d="M 968.5,813.5 C 969.325,817.647 969.825,821.981 970,826.5C 971.066,864.886 970.566,903.22 968.5,941.5C 968.737,942.791 968.404,943.791 967.5,944.5C 966.167,944.5 964.833,944.5 963.5,944.5C 963.66,946.199 963.494,947.866 963,949.5C 962.189,948.04 961.355,947.707 960.5,948.5C 962.04,952.306 960.707,954.306 956.5,954.5C 955.24,957.098 953.573,959.431 951.5,961.5C 948.912,963.625 945.912,964.958 942.5,965.5C 940.167,965.5 937.833,965.5 935.5,965.5C 865.167,965.5 794.833,965.5 724.5,965.5C 724.425,961.103 724.925,956.77 726,952.5C 726.333,954.167 726.667,955.833 727,957.5C 727.5,950.508 727.666,943.508 727.5,936.5C 727.423,932.785 727.756,929.119 728.5,925.5C 730.04,923.162 730.706,920.495 730.5,917.5C 731.663,911.529 732.663,905.529 733.5,899.5C 735.816,892.942 738.15,886.275 740.5,879.5C 739.167,876.833 739.167,874.167 740.5,871.5C 741.743,869.309 742.576,866.976 743,864.5C 743.494,866.134 743.66,867.801 743.5,869.5C 818.167,869.5 892.833,869.5 967.5,869.5C 967.333,888.17 967.5,906.836 968,925.5C 968.5,888.168 968.667,850.835 968.5,813.5 Z"/></g>
<g><path style="opacity:1" fill="#75958e" d="M 730.5,917.5 C 730.706,920.495 730.04,923.162 728.5,925.5C 728.565,922.572 729.232,919.905 730.5,917.5 Z"/></g>
<g><path style="opacity:0.996" fill="#f7de78" d="M 967.5,944.5 C 964.202,952.13 958.868,957.797 951.5,961.5C 953.573,959.431 955.24,957.098 956.5,954.5C 960.707,954.306 962.04,952.306 960.5,948.5C 961.355,947.707 962.189,948.04 963,949.5C 963.494,947.866 963.66,946.199 963.5,944.5C 964.833,944.5 966.167,944.5 967.5,944.5 Z"/></g>
<g><path style="opacity:0.11" fill="#fff8d2" d="M 237.5,954.5 C 238.583,954.539 239.583,954.873 240.5,955.5C 242.749,958.083 245.082,960.417 247.5,962.5C 243.296,960.967 239.963,958.3 237.5,954.5 Z"/></g>
<g><path style="opacity:0.992" fill="#ebda43" d="M 727.5,936.5 C 727.666,943.508 727.5,950.508 727,957.5C 726.667,955.833 726.333,954.167 726,952.5C 724.925,956.77 724.425,961.103 724.5,965.5C 794.833,965.5 865.167,965.5 935.5,965.5C 865.001,966.665 794.335,966.832 723.5,966C 722.62,964.644 722.286,963.144 722.5,961.5C 723.604,952.933 725.27,944.599 727.5,936.5 Z"/></g>
<g><path style="opacity:0.796" fill="#f0d57b" d="M 247.5,962.5 C 252.012,964.168 256.678,965.335 261.5,966C 368.833,966.5 476.166,966.667 583.5,966.5C 475.668,967.499 367.668,967.833 259.5,967.5C 254.768,967.373 250.768,965.707 247.5,962.5 Z"/></g>
<g><path style="opacity:0.012" fill="#dddedc" d="M 722.5,961.5 C 722.286,963.144 722.62,964.644 723.5,966C 794.335,966.832 865.001,966.665 935.5,965.5C 937.833,965.5 940.167,965.5 942.5,965.5C 938.183,967.579 933.516,968.746 928.5,969C 908.155,969.226 887.822,969.726 867.5,970.5C 823.774,969.725 780.108,969.392 736.5,969.5C 696.334,970.17 656.167,970.836 616,971.5C 607.388,971.241 598.888,970.241 590.5,968.5C 582.521,970.89 574.355,971.89 566,971.5C 533.989,971.499 501.989,971.499 470,971.5C 403.518,970.675 337.018,970.175 270.5,970C 266.57,969.758 262.903,968.925 259.5,967.5C 367.668,967.833 475.668,967.499 583.5,966.5C 584.492,966.672 585.158,966.338 585.5,965.5C 630.931,966.83 676.264,966.83 721.5,965.5C 721.232,963.901 721.566,962.568 722.5,961.5 Z"/></g>
</svg>
